Musala Aerosol.ufo
<glyph name="parenright" format="2">
	<advance width="403"/>
	<unicode hex="0029"/>
	<outline>
		<contour>
			<point x="197.78705" y="365.32155" type="line"/>
			<point x="352.96996" y="345.09876" type="line"/>
			<point x="353" y="351" type="line"/>
			<point x="353" y="732"/>
			<point x="139.462" y="829.266"/>
			<point x="79.611" y="835.266" type="curve"/>
			<point x="44" y="764" type="line"/>
			<point x="74.462" y="751"/>
			<point x="153" y="709"/>
			<point x="180" y="663" type="curve"/>
			<point x="198" y="615"/>
			<point x="198" y="540"/>
			<point x="198" y="396" type="curve"/>
		</contour>
		<contour>
			<point x="348.56082" y="280.29664" type="curve"/>
			<point x="196.17713" y="310.64431" type="line"/>
			<point x="184.76793" y="64.18288"/>
			<point x="120.72005" y="27.53101"/>
			<point x="30" y="-2.425" type="curve"/>
			<point x="47" y="-81" type="line"/>
			<point x="163.76118" y="-76.46618"/>
			<point x="320.37205" y="59.62276"/>
		</contour>
	</outline>
</glyph>
<glyph name="slash" format="2">
	<advance width="497.68"/>
	<unicode hex="002F"/>
	<outline>
		<contour>
			<point x="19.9962" y="-86.77949" type="curve"/>
			<point x="173.00157" y="-86.77949" type="line"/>
			<point x="477.68243" y="785.32141" type="line"/>
			<point x="474.4837" y="790.72675"/>
			<point x="441.23743" y="814.63416"/>
			<point x="430.95255" y="818.29248" type="curve" smooth="yes"/>
			<point x="420.91904" y="821.86108"/>
			<point x="324.41" y="814.98047"/>
			<point x="317.30475" y="812.58728" type="curve"/>
			<point x="315.38824" y="779.80408"/>
			<point x="298.02774" y="694.02588"/>
			<point x="292.03159" y="667.74731" type="curve"/>
			<point x="66.14071" y="15.54" type="line"/>
			<point x="55.20278" y="-7.444"/>
			<point x="29.54551" y="-68.22842"/>
		</contour>
	</outline>
</glyph>
<glyph name="zero" format="2">
	<advance width="669"/>
	<unicode hex="0030"/>
	<outline>
		<contour>
			<point x="40.90663" y="408.92718" type="curve"/>
			<point x="170.22093" y="416.9787" type="line"/>
			<point x="172.50947" y="504.16666"/>
			<point x="183.98565" y="574.96451"/>
			<point x="209.344" y="636.268" type="curve"/>
			<point x="234.03598" y="658.24361"/>
			<point x="287.741" y="680"/>
			<point x="337.595" y="680" type="curve" smooth="yes"/>
			<point x="419.607" y="680"/>
			<point x="493.46586" y="627.97731"/>
			<point x="497.64712" y="451.24896" type="curve" smooth="yes"/>
			<point x="497.83615" y="443.12385"/>
			<point x="497.98341" y="432.33703"/>
			<point x="498.08838" y="421.87916" type="curve"/>
			<point x="628.33347" y="429.87887" type="line"/>
			<point x="618.83275" y="654.03003"/>
			<point x="508.5661" y="769"/>
			<point x="349" y="769" type="curve" smooth="yes"/>
			<point x="223.66551" y="769"/>
			<point x="54.7269" y="688.26541"/>
		</contour>
		<contour>
			<point x="169.84551" y="359.93888" type="curve"/>
			<point x="40.01093" y="359.48626" type="line"/>
			<point x="41.16887" y="121.58665"/>
			<point x="134.35302" y="-9"/>
			<point x="338" y="-9" type="curve" smooth="yes"/>
			<point x="484.28698" y="-9"/>
			<point x="620.24991" y="78.34898"/>
			<point x="628.59476" y="361.97383" type="curve"/>
			<point x="498.25045" y="363.45773" type="line"/>
			<point x="497.65062" y="237.41559"/>
			<point x="488.68511" y="167.93062"/>
			<point x="469.922" y="133.894" type="curve"/>
			<point x="456.73295" y="117.26847"/>
			<point x="406.19" y="81"/>
			<point x="335.832" y="81" type="curve" smooth="yes"/>
			<point x="244.32765" y="81"/>
			<point x="178.7095" y="154.76972"/>
			<point x="172.925" y="266.218" type="curve" smooth="yes"/>
			<point x="171.11706" y="301.05114"/>
			<point x="170.10541" y="329.52755"/>
		</contour>
	</outline>
</glyph>
<glyph name="one" format="2">
	<advance width="438.15"/>
	<unicode hex="0031"/>
	<outline>
		<contour>
			<point x="72.358" y="548.414" type="line"/>
			<point x="367.18548" y="714.09588" type="line"/>
			<point x="373.148" y="748.07" type="line"/>
			<point x="368.148" y="750.11"/>
			<point x="288.292" y="762.444"/>
			<point x="280.97" y="763" type="curve"/>
			<point x="269.144" y="760.533"/>
			<point x="235.272" y="748.66"/>
			<point x="219.422" y="742.167" type="curve" smooth="yes"/>
			<point x="188.031" y="729.309"/>
			<point x="57.262" y="668.305"/>
			<point x="45.002" y="662.82" type="curve"/>
		</contour>
		<contour>
			<point x="358.43163" y="642.35585" type="line"/>
			<point x="221.97" y="575.12003" type="line"/>
			<point x="221.97" y="0" type="line"/>
			<point x="364.97" y="0" type="line"/>
			<point x="361.97375" y="35.07031"/>
			<point x="355.859" y="102.48"/>
			<point x="353.859" y="122.746" type="curve"/>
			<point x="353.859" y="576.867" type="line"/>
		</contour>
	</outline>
</glyph>
<glyph name="three" format="2">
	<advance width="565.13"/>
	<unicode hex="0033"/>
	<guideline x="514.8" y="369.12" angle="270"/>
	<outline>
		<contour>
			<point x="383.49597" y="303.87692" type="curve"/>
			<point x="518.91188" y="289.93207" type="line"/>
			<point x="520.132" y="252.547" type="line" smooth="yes"/>
			<point x="520.132" y="122.727"/>
			<point x="428.741" y="-12.354"/>
			<point x="251.411" y="-12.354" type="curve" smooth="yes"/>
			<point x="147.81281" y="-12.354"/>
			<point x="77.886" y="19.432"/>
			<point x="63.827" y="25.934" type="curve"/>
			<point x="59.53" y="32.458"/>
			<point x="44.997" y="70.295"/>
			<point x="44.997" y="78.11" type="curve" smooth="yes"/>
			<point x="44.997" y="85.551"/>
			<point x="107.246" y="134.414"/>
			<point x="116.835" y="142.592" type="curve"/>
			<point x="130.069" y="131.781"/>
			<point x="175.26594" y="78"/>
			<point x="252.9925" y="78" type="curve" smooth="yes"/>
			<point x="296.31879" y="78"/>
			<point x="331.112" y="88.313"/>
			<point x="347.966" y="99.575" type="curve"/>
			<point x="359.428" y="111.727"/>
			<point x="390.383" y="160.51728"/>
			<point x="390.383" y="244.465" type="curve" smooth="yes"/>
			<point x="390.383" y="254.21376"/>
			<point x="387.6259" y="286.74801"/>
		</contour>
		<contour>
			<point x="63.03" y="657.471" type="line"/>
			<point x="110.995" y="765.152" type="line"/>
			<point x="207.37673" y="755.19087"/>
			<point x="316.90406" y="753.43398"/>
			<point x="407.29194" y="756.52968" type="curve"/>
			<point x="319.66966" y="657.471" type="line"/>
		</contour>
		<contour>
			<point x="130.642" y="417.63" type="curve"/>
			<point x="178.22436" y="455.21448"/>
			<point x="250.50923" y="523.57447"/>
			<point x="303.50928" y="582.65327" type="curve"/>
			<point x="484.38541" y="760.67054" type="line"/>
			<point x="505.71" y="762.471" type="line"/>
			<point x="498.071" y="676.465" type="line"/>
			<point x="459.49417" y="619.64977"/>
			<point x="378.91638" y="526.72288"/>
			<point x="306.85543" y="453.96853" type="curve" smooth="yes"/>
			<point x="288.01835" y="434.95019"/>
			<point x="269.76325" y="417.31029"/>
			<point x="252.9925" y="402.0542" type="curve"/>
			<point x="239.80522" y="448.15209" type="line"/>
			<point x="261.16405" y="453.0425"/>
			<point x="283.95829" y="454.89067"/>
			<point x="306.85543" y="453.96853" type="curve" smooth="yes"/>
			<point x="390.69403" y="450.59209"/>
			<point x="475.91231" y="410.07459"/>
			<point x="497.09841" y="345.7642" type="curve"/>
			<point x="361.78356" y="363.8766"/>
			<point x="331.112" y="380.49148"/>
			<point x="168.042" y="362.128" type="curve"/>
			<point x="163.356" y="368.077"/>
			<point x="141.313" y="408.143"/>
		</contour>
	</outline>
</glyph>
<glyph name="five" format="2">
	<advance width="572.04"/>
	<unicode hex="0035"/>
	<guideline x="530.39" y="440.85" angle="269"/>
	<outline>
		<contour>
			<point x="388.43214" y="275.23303" type="curve"/>
			<point x="519.70602" y="282.97687" type="line"/>
			<point x="506.59024" y="407.08773"/>
			<point x="419.99639" y="467.79992"/>
			<point x="302.31307" y="467.79992" type="curve" smooth="yes"/>
			<point x="264.08587" y="467.79992"/>
			<point x="221.79387" y="459.72992"/>
			<point x="191.54787" y="451.63492" type="curve"/>
			<point x="208.52256" y="754.98062" type="line"/>
			<point x="150.87387" y="761.93092" type="line"/>
			<point x="75.91387" y="660.71992" type="line"/>
			<point x="81.89887" y="590.91292"/>
			<point x="74.56487" y="462.42792"/>
			<point x="55.82987" y="377.83992" type="curve"/>
			<point x="97.40587" y="359.81392" type="line"/>
			<point x="129.8635" y="370.23191"/>
			<point x="221.29287" y="392.61292"/>
			<point x="262.33687" y="392.61292" type="curve" smooth="yes"/>
			<point x="342.12068" y="392.61292"/>
			<point x="381.22401" y="355.69489"/>
		</contour>
		<contour>
			<point x="49.54687" y="74.49492" type="curve" smooth="yes"/>
			<point x="47.78887" y="66.87992"/>
			<point x="60.92687" y="38.89192"/>
			<point x="63.64687" y="31.56792" type="curve"/>
			<point x="99.74787" y="6.15792"/>
			<point x="184.34687" y="-12.98908"/>
			<point x="247.19187" y="-12.98908" type="curve" smooth="yes"/>
			<point x="395.0567" y="-12.98908"/>
			<point x="507.28392" y="82.86063"/>
			<point x="520.19168" y="222.01851" type="curve"/>
			<point x="389.12874" y="229.38823" type="line"/>
			<point x="385.8448" y="178.34069"/>
			<point x="368.08907" y="127.22347"/>
			<point x="351.33487" y="101.73092" type="curve"/>
			<point x="337.94187" y="92.12992"/>
			<point x="304.64987" y="76.63692"/>
			<point x="256.47335" y="76.63692" type="curve" smooth="yes"/>
			<point x="190.11887" y="76.63692"/>
			<point x="145.15987" y="115.79792"/>
			<point x="119.20387" y="137.74792" type="curve"/>
			<point x="108.02087" y="131.93692"/>
			<point x="51.44587" y="82.71892"/>
		</contour>
		<contour>
			<point x="254.16583" y="653.19193" type="line"/>
			<point x="329.86084" y="651.23698"/>
			<point x="391.50865" y="652.31253"/>
			<point x="469.03987" y="657.71992" type="curve"/>
			<point x="513.03987" y="761.71992" type="line"/>
			<point x="415.68258" y="752.35528"/>
			<point x="336.59677" y="748.72459"/>
			<point x="265.42027" y="751.37732" type="curve"/>
		</contour>
	</outline>
</glyph>
<glyph name="six" format="2">
	<advance width="629"/>
	<unicode hex="0036"/>
	<outline>
		<contour>
			<point x="156.49378" y="40.95948" type="curve"/>
			<point x="225.11374" y="125.28079" type="line"/>
			<point x="185.96854" y="180.59577"/>
			<point x="178" y="274.51191"/>
			<point x="178" y="359" type="curve" smooth="yes"/>
			<point x="178" y="560.19965"/>
			<point x="222.07327" y="665"/>
			<point x="338.632" y="665" type="curve" smooth="yes"/>
			<point x="378.632" y="665"/>
			<point x="426" y="654.727"/>
			<point x="480" y="620.727" type="curve"/>
			<point x="485.881" y="629.736"/>
			<point x="535.935" y="679.055"/>
			<point x="535.935" y="690.005" type="curve" smooth="yes"/>
			<point x="535.935" y="697.936"/>
			<point x="522.55" y="729.586"/>
			<point x="510.237" y="744.316" type="curve"/>
			<point x="461.934" y="759.784"/>
			<point x="413.518" y="769.497"/>
			<point x="346.411" y="769.497" type="curve" smooth="yes"/>
			<point x="126.046" y="769.497"/>
			<point x="50" y="524.855"/>
			<point x="50" y="342.69058" type="curve" smooth="yes"/>
			<point x="50" y="221.49048"/>
			<point x="80.98195" y="105.6403"/>
		</contour>
		<contour>
			<point x="269.53337" y="87.14938" type="curve"/>
			<point x="195.84575" y="14.22371" type="line"/>
			<point x="227.80583" y="-2.57437"/>
			<point x="265.65488" y="-12"/>
			<point x="310" y="-12" type="curve" smooth="yes"/>
			<point x="445" y="-12"/>
			<point x="579" y="91"/>
			<point x="579" y="245" type="curve" smooth="yes"/>
			<point x="579" y="423.89915"/>
			<point x="465.998" y="475.491"/>
			<point x="342.115" y="465" type="curve" smooth="yes"/>
			<point x="303.87847" y="461.76179"/>
			<point x="268.98663" y="454.51973"/>
			<point x="236.76672" y="446.22749" type="curve"/>
			<point x="229.32802" y="371.64603" type="line"/>
			<point x="262.70178" y="378.74143"/>
			<point x="297.95847" y="384"/>
			<point x="325" y="384" type="curve" smooth="yes"/>
			<point x="404" y="384"/>
			<point x="447" y="353"/>
			<point x="447" y="242" type="curve" smooth="yes"/>
			<point x="447" y="185"/>
			<point x="435" y="129"/>
			<point x="416" y="101" type="curve"/>
			<point x="403" y="91"/>
			<point x="376.177" y="77"/>
			<point x="318.755" y="77" type="curve" smooth="yes"/>
			<point x="300.01399" y="77"/>
			<point x="283.70879" y="80.59424"/>
		</contour>
	</outline>
</glyph>
<glyph name="eight" format="2">
	<advance width="611.81"/>
	<unicode hex="0038"/>
	<outline>
		<contour>
			<point x="462.39214" y="375.49249" type="curve"/>
			<point x="444.88713" y="363.0747"/>
			<point x="413.479" y="345.86448"/>
			<point x="338.22877" y="322.51059" type="curve"/>
			<point x="391.301" y="291.826" type="line"/>
			<point x="419.788" y="273.784"/>
			<point x="436.119" y="246.108"/>
			<point x="436.119" y="207.12" type="curve" smooth="yes"/>
			<point x="436.119" y="170.805"/>
			<point x="429.66" y="145.425"/>
			<point x="425.893" y="133.672" type="curve"/>
			<point x="414.479" y="116.359"/>
			<point x="372.073" y="79"/>
			<point x="310.901" y="79" type="curve" smooth="yes"/>
			<point x="279.19889" y="79"/>
			<point x="254.18597" y="86.61697"/>
			<point x="234.8389" y="99.1025" type="curve"/>
			<point x="167.33248" y="20.56078" type="line"/>
			<point x="207.07821" y="0.79945"/>
			<point x="255.99833" y="-11"/>
			<point x="312.654" y="-11" type="curve" smooth="yes"/>
			<point x="469.269" y="-11"/>
			<point x="561.813" y="106.469"/>
			<point x="561.813" y="212.969" type="curve" smooth="yes"/>
			<point x="561.813" y="283.93788"/>
			<point x="542.911" y="319.18641"/>
		</contour>
		<contour>
			<point x="339.46774" y="678.68898" type="curve"/>
			<point x="339.22346" y="769.89077" type="line"/>
			<point x="330.69211" y="770.64862"/>
			<point x="321.93812" y="771.039"/>
			<point x="312.971" y="771.039" type="curve" smooth="yes"/>
			<point x="197.214" y="771.039"/>
			<point x="90.847" y="683.96"/>
			<point x="90.847" y="576" type="curve" smooth="yes"/>
			<point x="90.847" y="473.287"/>
			<point x="156.931" y="429.695"/>
			<point x="195.149" y="403.758" type="curve"/>
			<point x="137.666" y="367.066"/>
			<point x="50.003" y="310.478"/>
			<point x="50.003" y="191.688" type="curve" smooth="yes"/>
			<point x="50.003" y="143.77338"/>
			<point x="70.89625" y="97.12513"/>
			<point x="109.33095" y="60.68311" type="curve"/>
			<point x="202.59684" y="130.92401" type="line"/>
			<point x="185.51079" y="156.33103"/>
			<point x="178.434" y="187.74204"/>
			<point x="178.434" y="217.281" type="curve" smooth="yes"/>
			<point x="178.434" y="286.789"/>
			<point x="214.992" y="341.06"/>
			<point x="250.865" y="367.066" type="curve"/>
			<point x="413.05823" y="361.28672"/>
			<point x="540.911" y="456.23551"/>
			<point x="540.911" y="573" type="curve" smooth="yes"/>
			<point x="540.911" y="651.98175"/>
			<point x="489.15091" y="726.28242"/>
			<point x="401.92628" y="756.63958" type="curve"/>
			<point x="375.76014" y="665.59829" type="line"/>
			<point x="453.39313" y="619.18725"/>
			<point x="425.893" y="486.89318"/>
			<point x="376.37098" y="439.75003" type="curve"/>
			<point x="310.3161" y="447.68457"/>
			<point x="210.149" y="512.76534"/>
			<point x="210.149" y="574.19132" type="curve" smooth="yes"/>
			<point x="210.149" y="613.047"/>
			<point x="217.128" y="645.09"/>
			<point x="226.401" y="656.718" type="curve"/>
			<point x="237" y="666.497"/>
			<point x="274.89" y="681"/>
			<point x="311.81" y="681" type="curve" smooth="yes"/>
			<point x="321.80428" y="681"/>
			<point x="331.00923" y="680.20027"/>
		</contour>
	</outline>
</glyph>
<glyph name="nine" format="2">
	<advance width="628"/>
	<unicode hex="0039"/>
	<outline>
		<contour>
			<point x="391.58057" y="305.21575" type="curve"/>
			<point x="388.38947" y="377.745" type="line"/>
			<point x="356.70764" y="371.21592"/>
			<point x="324.61646" y="366.497"/>
			<point x="299" y="366.497" type="curve" smooth="yes"/>
			<point x="220" y="366.497"/>
			<point x="182" y="403.497"/>
			<point x="182" y="504.497" type="curve" smooth="yes"/>
			<point x="182" y="561.497"/>
			<point x="192" y="625.497"/>
			<point x="211" y="653.497" type="curve"/>
			<point x="223.31102" y="662.96702"/>
			<point x="253.06857" y="676.02428"/>
			<point x="301.88027" y="677.38171" type="curve"/>
			<point x="295.79368" y="770.58734" type="line"/>
			<point x="154.92939" y="759.46609"/>
			<point x="50" y="647.57767"/>
			<point x="50" y="501.497" type="curve" smooth="yes"/>
			<point x="50" y="314.497"/>
			<point x="179" y="285.497"/>
			<point x="281.885" y="285.497" type="curve" smooth="yes"/>
			<point x="322.53965" y="285.497"/>
			<point x="360.70856" y="295.32755"/>
		</contour>
		<contour>
			<point x="446" y="391.497" type="curve" smooth="yes"/>
			<point x="446" y="263.52651"/>
			<point x="433.698" y="147.875"/>
			<point x="399.966" y="102.575" type="curve"/>
			<point x="388.66" y="87.392"/>
			<point x="345.523" y="77.481"/>
			<point x="307.411" y="77.481" type="curve" smooth="yes"/>
			<point x="237.125" y="77.481"/>
			<point x="178.474" y="130.902"/>
			<point x="158.835" y="143.592" type="curve"/>
			<point x="147.652" y="137.781"/>
			<point x="88.065" y="89.392"/>
			<point x="88.065" y="78.442" type="curve" smooth="yes"/>
			<point x="88.065" y="70.511"/>
			<point x="98.272" y="39.404"/>
			<point x="107.585" y="24.674" type="curve"/>
			<point x="137.379" y="11.002"/>
			<point x="210.482" y="-12"/>
			<point x="277.589" y="-12" type="curve" smooth="yes"/>
			<point x="548.139" y="-12"/>
			<point x="578" y="195.55469"/>
			<point x="578" y="383.497" type="curve" smooth="yes"/>
			<point x="578" y="561.71345"/>
			<point x="530.909" y="750.81232"/>
			<point x="353.25688" y="769.91737" type="curve"/>
			<point x="345.57282" y="673.25709" type="line"/>
			<point x="437.52928" y="647.30945"/>
			<point x="446" y="507.241"/>
		</contour>
	</outline>
</glyph>
<glyph name="question" format="2">
	<advance width="527.94"/>
	<unicode hex="003F"/>
	<outline>
		<contour>
			<point x="345.50798" y="620.63812" type="curve"/>
			<point x="472.92452" y="610.92975" type="line"/>
			<point x="473.07141" y="632.38973"/>
			<point x="472.21106" y="654.16317"/>
			<point x="470.055" y="673.488" type="curve"/>
			<point x="439.203" y="748.813"/>
			<point x="379.644" y="807"/>
			<point x="280.508" y="807" type="curve" smooth="yes"/>
			<point x="166.228" y="807"/>
			<point x="89.918" y="745.395"/>
			<point x="44.995" y="678.331" type="curve"/>
			<point x="123.809" y="629.942" type="line"/>
			<point x="135.371" y="644.93"/>
			<point x="193.752" y="719.821"/>
			<point x="255.35" y="719.821" type="curve" smooth="yes"/>
			<point x="312.25993" y="719.821"/>
			<point x="339.31569" y="657.48515"/>
		</contour>
		<contour>
			<point x="338.47" y="28.865" type="curve" smooth="yes"/>
			<point x="338.47" y="-16.559"/>
			<point x="301.67" y="-48.382"/>
			<point x="255.35" y="-48.382" type="curve" smooth="yes"/>
			<point x="209.444" y="-48.382"/>
			<point x="172.229" y="-16.559"/>
			<point x="172.229" y="28.865" type="curve" smooth="yes"/>
			<point x="172.229" y="74.289"/>
			<point x="209.444" y="106.111"/>
			<point x="255.35" y="106.111" type="curve" smooth="yes"/>
			<point x="301.256" y="106.111"/>
			<point x="338.47" y="74.289"/>
		</contour>
		<contour>
			<point x="466.32637" y="525.16863" type="line"/>
			<point x="336.53033" y="572.48626" type="line"/>
			<point x="312.25993" y="504.83806"/>
			<point x="243.77902" y="435.27345"/>
			<point x="187.066" y="386.479" type="curve"/>
			<point x="178.583" y="341.297"/>
			<point x="173.616" y="269.58"/>
			<point x="173.616" y="226.932" type="curve"/>
			<point x="192.606" y="215.249"/>
			<point x="212.738" y="205.895"/>
			<point x="223.284" y="204.03" type="curve" smooth="yes"/>
			<point x="233.728" y="202.182"/>
			<point x="306.943" y="225.612"/>
			<point x="313.921" y="229.856" type="curve"/>
			<point x="292.06" y="348.976" type="line"/>
			<point x="313.921" y="372.442"/>
			<point x="448.002" y="485.508"/>
			<point x="460.163" y="502.767" type="curve"/>
		</contour>
	</outline>
</glyph>
<glyph name="C" format="2">
	<advance width="602.27"/>
	<unicode hex="0043"/>
	<outline>
		<contour>
			<point x="362.65046" y="683.53253" type="curve"/>
			<point x="362.65047" y="804.48505" type="line"/>
			<point x="384.526" y="805.462" type="line"/>
			<point x="433.799" y="805.462"/>
			<point x="484.861" y="794.601"/>
			<point x="506.789" y="785.478" type="curve"/>
			<point x="514.168" y="775.598"/>
			<point x="532.867" y="741.561"/>
			<point x="532.867" y="733.683" type="curve" smooth="yes"/>
			<point x="532.867" y="725.683"/>
			<point x="484.425" y="660.866"/>
			<point x="476.174" y="652.571" type="curve"/>
			<point x="454.19746" y="661.80864"/>
			<point x="420.28857" y="683.26803"/>
		</contour>
		<contour>
			<point x="196.996" y="393.491" type="curve" smooth="yes"/>
			<point x="196.996" y="259.2837"/>
			<point x="228.73938" y="143.60872"/>
			<point x="306.11928" y="-8.4414" type="curve"/>
			<point x="193.0015" y="8.94531"/>
			<point x="54.996" y="116.60266"/>
			<point x="54.996" y="365" type="curve" smooth="yes"/>
			<point x="54.996" y="588.55769"/>
			<point x="168.4587" y="747.10348"/>
			<point x="304.49765" y="792.30377" type="curve"/>
			<point x="313.30853" y="672.77533" type="line"/>
			<point x="268.87878" y="653.15974"/>
			<point x="235.32803" y="611.8306"/>
			<point x="222.816" y="592.52" type="curve"/>
			<point x="214.555" y="577.441"/>
			<point x="196.996" y="492.79162"/>
		</contour>
		<contour>
			<point x="357.1435" y="-10.63217" type="curve"/>
			<point x="317.89438" y="106.67553" type="line"/>
			<point x="354.327" y="101.339" type="line"/>
			<point x="416.672" y="101.339"/>
			<point x="479.963" y="133.17"/>
			<point x="511.267" y="148.17" type="curve"/>
			<point x="557.265" y="76" type="line"/>
			<point x="511.29868" y="34.627"/>
			<point x="445.87829" y="-6.35021"/>
		</contour>
	</outline>
</glyph>
<glyph name="D" format="2">
	<advance width="632"/>
	<unicode hex="0044"/>
	<outline>
		<contour>
			<point x="82.05479" y="167.60138" type="line"/>
			<point x="217.06061" y="145.33758" type="line"/>
			<point x="217.719" y="801.152" type="line"/>
			<point x="184.22" y="801.152"/>
			<point x="111.24" y="790.744"/>
			<point x="67" y="784.04" type="curve"/>
			<point x="73.778" y="730.041"/>
			<point x="77.495" y="645.948"/>
			<point x="82.045" y="588.414" type="curve"/>
		</contour>
		<contour>
			<point x="295.445" y="96.163" type="curve"/>
			<point x="78.90252" y="108.78498" type="line"/>
			<point x="75.10654" y="72.39788"/>
			<point x="68.77205" y="27.53501"/>
			<point x="65" y="0" type="curve"/>
			<point x="249" y="0" type="line"/>
			<point x="342.162" y="0"/>
			<point x="413.583" y="18.163"/>
			<point x="447.865" y="42.267" type="curve" smooth="yes"/>
			<point x="531.317" y="100.943"/>
			<point x="592" y="305.287"/>
			<point x="592" y="448.508" type="curve" smooth="yes"/>
			<point x="592" y="653.508"/>
			<point x="490.278" y="751.3"/>
			<point x="430.886" y="775.128" type="curve" smooth="yes"/>
			<point x="393.35768" y="790.18407"/>
			<point x="331.2477" y="797.27858"/>
			<point x="275.04487" y="799.89675" type="curve"/>
			<point x="269.92828" y="700.16705" type="line"/>
			<point x="280.98439" y="700.83965"/>
			<point x="290.07402" y="701.271"/>
			<point x="300.543" y="701.271" type="curve" smooth="yes"/>
			<point x="368.427" y="701.271"/>
			<point x="450" y="672.409"/>
			<point x="450" y="463.66" type="curve" smooth="yes"/>
			<point x="450" y="275.015"/>
			<point x="417.445" y="97.163"/>
		</contour>
	</outline>
</glyph>
<glyph name="F" format="2">
	<advance width="543.78"/>
	<unicode hex="0046"/>
	<outline>
		<contour>
			<point x="215.86" y="0" type="line"/>
			<point x="216.39591" y="800.35866" type="line"/>
			<point x="163.264" y="800.438" type="line" smooth="yes"/>
			<point x="143.995" y="800.467"/>
			<point x="100.309" y="787.751"/>
			<point x="65.003" y="779.471" type="curve"/>
			<point x="71.781" y="725.472"/>
			<point x="76.355" y="645.948"/>
			<point x="80.905" y="588.414" type="curve"/>
			<point x="80.915" y="153.611" type="line"/>
			<point x="80.915" y="128.688"/>
			<point x="73.508" y="41.229"/>
			<point x="67.86" y="0" type="curve"/>
		</contour>
		<contour>
			<point x="202.003" y="341" type="line"/>
			<point x="463.003" y="341" type="line"/>
			<point x="463.003" y="435" type="line"/>
			<point x="372.85" y="427.602"/>
			<point x="292.13" y="426.622"/>
			<point x="202.003" y="435" type="curve"/>
		</contour>
		<contour>
			<point x="274.87748" y="800.27432" type="line"/>
			<point x="268.58202" y="711.06026" type="line"/>
			<point x="364.12656" y="710.19098"/>
			<point x="455.4701" y="707.99139"/>
			<point x="498.779" y="704.937" type="curve"/>
			<point x="498.779" y="799.937" type="line"/>
		</contour>
	</outline>
</glyph>
<glyph name="K" format="2">
	<advance width="683.62"/>
	<unicode hex="004B"/>
	<guideline x="772.14" y="779.48" angle="0"/>
	<outline>
		<contour>
			<point x="80.90621" y="274.80334" type="line"/>
			<point x="215.62" y="520.16461" type="line"/>
			<point x="215.62" y="789" type="line"/>
			<point x="209.62" y="792"/>
			<point x="173.62" y="800"/>
			<point x="162.62" y="800" type="curve" smooth="yes"/>
			<point x="152.62" y="800"/>
			<point x="76.997" y="783.471"/>
			<point x="64.997" y="779.471" type="curve"/>
			<point x="71.775" y="725.472"/>
			<point x="76.349" y="645.948"/>
			<point x="80.899" y="588.414" type="curve"/>
		</contour>
		<contour>
			<point x="67.854" y="0" type="curve"/>
			<point x="215.62" y="0" type="line"/>
			<point x="215.62" y="264.39854" type="line"/>
			<point x="617.404" y="763.341" type="line"/>
			<point x="606.78" y="773.915"/>
			<point x="577.846" y="799.778"/>
			<point x="569.814" y="799.778" type="curve" smooth="yes"/>
			<point x="561.504" y="799.778"/>
			<point x="472.971" y="792.778"/>
			<point x="458.971" y="788.778" type="curve"/>
			<point x="423.987" y="729.727"/>
			<point x="319.993" y="563.37"/>
			<point x="290.246" y="523.752" type="curve"/>
			<point x="80.90754" y="216.95866" type="line"/>
			<point x="80.909" y="153.611" type="line" smooth="yes"/>
			<point x="80.909" y="128.688"/>
			<point x="73.502" y="41.229"/>
		</contour>
		<contour>
			<point x="297.55003" y="309.88537" type="line"/>
			<point x="465.62" y="0" type="line"/>
			<point x="633.62" y="0" type="line"/>
			<point x="598.987" y="47.198"/>
			<point x="561.377" y="98.358"/>
			<point x="531.669" y="143.8" type="curve"/>
			<point x="413.969" y="354.885" type="line"/>
			<point x="385.35251" y="400.64672" type="line"/>
		</contour>
	</outline>
</glyph>
<glyph name="L" format="2">
	<advance width="545.49"/>
	<unicode hex="004C"/>
	<outline>
		<contour>
			<point x="269.78327" y="92.73458" type="curve"/>
			<point x="264.95084" y="0" type="line"/>
			<point x="495.49" y="0" type="line"/>
			<point x="495.49" y="108" type="line"/>
			<point x="448.77634" y="101.4437"/>
			<point x="373.13727" y="94.88739"/>
		</contour>
		<contour>
			<point x="217.42024" y="0" type="line"/>
			<point x="215.208" y="789.373" type="line"/>
			<point x="209.766" y="791.694"/>
			<point x="173.937" y="800.453"/>
			<point x="163.021" y="800.373" type="curve" smooth="yes"/>
			<point x="152.371" y="800.295"/>
			<point x="76.739" y="783.28"/>
			<point x="65.003" y="779.471" type="curve"/>
			<point x="71.781" y="725.472"/>
			<point x="76.355" y="645.948"/>
			<point x="80.905" y="588.414" type="curve"/>
			<point x="80.915" y="153.611" type="line"/>
			<point x="80.915" y="128.688"/>
			<point x="73.508" y="41.229"/>
			<point x="67.86" y="0" type="curve"/>
		</contour>
	</outline>
</glyph>
<glyph name="M" format="2">
	<advance width="842.69"/>
	<unicode hex="004D"/>
	<guideline x="517.36" y="788.34" angle="0"/>
	<outline>
		<contour>
			<point x="643.64169" y="507.93416" type="line"/>
			<point x="741.0932" y="792.83509" type="line"/>
			<point x="778.019" y="779.471" type="line"/>
			<point x="774.241" y="725.472"/>
			<point x="777.642" y="680.23698"/>
			<point x="777.642" y="588.414" type="curve"/>
			<point x="777.632" y="153.611" type="line"/>
			<point x="778.632" y="128.688"/>
			<point x="787.04" y="41.229"/>
			<point x="792.688" y="0" type="curve"/>
			<point x="642.838" y="0" type="line"/>
		</contour>
		<contour>
			<point x="104.93819" y="787.82053" type="line"/>
			<point x="182.44999" y="465.49013" type="line"/>
			<point x="174" y="0" type="line"/>
			<point x="50" y="0" type="line"/>
			<point x="53.648" y="41.229"/>
			<point x="61.055" y="122.99609"/>
			<point x="63.055" y="153.611" type="curve"/>
			<point x="62.045" y="588.414" type="line"/>
			<point x="62.045" y="678.60417"/>
			<point x="62.921" y="725.472"/>
			<point x="60.143" y="779.471" type="curve"/>
		</contour>
		<contour>
			<point x="199.502" y="546.234" type="curve"/>
			<point x="157.51916" y="797.22497" type="line"/>
			<point x="177" y="800" type="line"/>
			<point x="186.89367" y="800"/>
			<point x="246.457" y="790.905"/>
			<point x="258.575" y="788.344" type="curve"/>
			<point x="447.45" y="186.638" type="line"/>
			<point x="414.3" y="172.638" type="line"/>
			<point x="590.563" y="784.861" type="line"/>
			<point x="682.16491" y="796.97078" type="line"/>
			<point x="499.478" y="105.613" type="line"/>
			<point x="490.34375" y="98.81543"/>
			<point x="449.56934" y="75.65625"/>
			<point x="436.003" y="71" type="curve"/>
			<point x="421.533" y="72"/>
			<point x="352.02" y="84.988"/>
			<point x="337.233" y="90.073" type="curve"/>
			<point x="332.43139" y="120.789"/>
			<point x="205.55136" y="519.088"/>
		</contour>
	</outline>
</glyph>
<glyph name="N" format="2">
	<advance width="677.86"/>
	<unicode hex="004E"/>
	<anchor x="360.04322" y="794.55492" name="top"/>
	<anchor x="339" y="0" name="bottom"/>
	<outline>
		<contour>
			<point x="495.537" y="420.866" type="line"/>
			<point x="585.581" y="0" type="line"/>
			<point x="618.683" y="0" type="line"/>
			<point x="613.035" y="41.229"/>
			<point x="608.627" y="128.688"/>
			<point x="608.627" y="153.611" type="curve"/>
			<point x="608.637" y="588.414" type="line"/>
			<point x="613.187" y="645.948"/>
			<point x="621.086" y="737.482"/>
			<point x="627.864" y="791.481" type="curve"/>
			<point x="623.01" y="793.055"/>
			<point x="597.182" y="800.44"/>
			<point x="586.265" y="800.373" type="curve" smooth="yes"/>
			<point x="573.615" y="800.295"/>
			<point x="502.028" y="788.175"/>
			<point x="494.986" y="786.061" type="curve"/>
		</contour>
		<contour>
			<point x="63.292" y="616.284" type="curve"/>
			<point x="188.86" y="622" type="line"/>
			<point x="438.86" y="0" type="line"/>
			<point x="545.016" y="0" type="line"/>
			<point x="468.264" y="271.148" type="line"/>
			<point x="399.466" y="409.922"/>
			<point x="243.435" y="795.317"/>
			<point x="243.435" y="795.317" type="curve"/>
			<point x="234.317" y="795.878"/>
			<point x="164.703" y="800"/>
			<point x="152.86" y="800" type="curve" smooth="yes"/>
			<point x="146.351" y="800"/>
			<point x="63.308" y="783.093"/>
			<point x="50.003" y="779.471" type="curve"/>
			<point x="55.492" y="735.737"/>
			<point x="59.536" y="668.261"/>
		</contour>
		<contour>
			<point x="178.787" y="566.35" type="line"/>
			<point x="65.906" y="555.6" type="line"/>
			<point x="65.915" y="153.611" type="line"/>
			<point x="65.915" y="128.688"/>
			<point x="58.508" y="41.229"/>
			<point x="52.86" y="0" type="curve"/>
			<point x="177.86" y="0" type="line"/>
		</contour>
	</outline>
</glyph>
<glyph name="O" format="2">
	<advance width="688"/>
	<unicode hex="004F"/>
	<anchor x="344" y="800" name="top"/>
	<anchor x="344" y="0" name="bottom"/>
	<anchor x="344" y="400" name="center"/>
	<anchor x="668" y="800" name="topright"/>
	<anchor x="619" y="10" name="ogonek"/>
	<anchor x="20" y="800" name="topleft"/>
	<outline>
		<contour>
			<point x="366.54228" y="102.43108" type="curve"/>
			<point x="387.02969" y="-6.52821" type="line"/>
			<point x="509.58421" y="17.08722"/>
			<point x="633" y="137.78263"/>
			<point x="633" y="439" type="curve" smooth="yes"/>
			<point x="633" y="634.51611"/>
			<point x="549.31546" y="790.9188"/>
			<point x="379.34379" y="804.97162" type="curve"/>
			<point x="376.32484" y="690.32644" type="line"/>
			<point x="443.36147" y="675.80049"/>
			<point x="491" y="600.17726"/>
			<point x="491" y="417.247" type="curve" smooth="yes"/>
			<point x="491" y="292.95"/>
			<point x="483.778" y="223.568"/>
			<point x="478" y="196.07" type="curve"/>
			<point x="457.2668" y="148.94909"/>
			<point x="417.87885" y="107.09491"/>
		</contour>
		<contour>
			<point x="336.42873" y="-10.97766" type="curve"/>
			<point x="306.49653" y="108.5578" type="line"/>
			<point x="246.42421" y="127.00423"/>
			<point x="197" y="192.36767"/>
			<point x="197" y="400" type="curve" smooth="yes"/>
			<point x="197" y="483"/>
			<point x="204.869" y="573.683"/>
			<point x="215" y="601" type="curve"/>
			<point x="240.87133" y="642.39414"/>
			<point x="281.61658" y="680.81349"/>
			<point x="327.86117" y="690.6042" type="curve"/>
			<point x="324.76414" y="803.98755" type="line"/>
			<point x="202.873" y="787.41156"/>
			<point x="55" y="666.72422"/>
			<point x="55" y="378.719" type="curve" smooth="yes"/>
			<point x="55" y="154.52209"/>
			<point x="161.54836" y="-8.78539"/>
		</contour>
	</outline>
</glyph>
<glyph name="P" format="2">
	<advance width="602.56"/>
	<unicode hex="0050"/>
	<guideline x="10.86" y="0" angle="0"/>
	<guideline x="-20.14" y="535" angle="0"/>
	<outline>
		<contour>
			<point x="73.60435" y="689.77702" type="line"/>
			<point x="95.21226" y="692.2348"/>
			<point x="253.48253" y="701.271"/>
			<point x="292.452" y="701.271" type="curve" smooth="yes"/>
			<point x="383.584" y="701.271"/>
			<point x="420.878" y="633.948"/>
			<point x="420.878" y="541" type="curve" smooth="yes"/>
			<point x="420.878" y="380.76"/>
			<point x="392.969" y="329.137"/>
			<point x="270.739" y="329.137" type="curve" smooth="yes"/>
			<point x="270.61384" y="329.137"/>
			<point x="270.48842" y="329.13704"/>
			<point x="270.36275" y="329.13711" type="curve"/>
			<point x="266.58992" y="246.73683" type="line"/>
			<point x="303.5721" y="240.13407"/>
			<point x="339.81752" y="235.024"/>
			<point x="360.798" y="235.024" type="curve" smooth="yes"/>
			<point x="446.498" y="235.024"/>
			<point x="562.56" y="336.993"/>
			<point x="562.56" y="542.132" type="curve" smooth="yes"/>
			<point x="562.56" y="645.792"/>
			<point x="488.305" y="765.146"/>
			<point x="428.02" y="781.128" type="curve" smooth="yes"/>
			<point x="376.088" y="794.897"/>
			<point x="316.873" y="801.152"/>
			<point x="213.579" y="801.152" type="curve" smooth="yes"/>
			<point x="180.08" y="801.152"/>
			<point x="109.243" y="790.17"/>
			<point x="65.003" y="783.466" type="curve"/>
		</contour>
		<contour>
			<point x="215.86" y="642.28813" type="line"/>
			<point x="77.0287" y="641.6472" type="line"/>
			<point x="80.905" y="588.414" type="line"/>
			<point x="80.915" y="153.611" type="line"/>
			<point x="80.915" y="128.688"/>
			<point x="73.508" y="41.229"/>
			<point x="67.86" y="0" type="curve"/>
			<point x="215.86" y="0" type="line"/>
		</contour>
	</outline>
</glyph>
<glyph name="S" format="2">
	<advance width="608.91"/>
	<unicode hex="0053"/>
	<outline>
		<contour>
			<point x="434.29" y="242.666"/>
			<point x="456.77949" y="406.98419" type="curve"/>
			<point x="523.08967" y="374.66014"/>
			<point x="568.90519" y="328.82436"/>
			<point x="568.90519" y="264.54285" type="curve" smooth="yes"/>
			<point x="568.90519" y="192.87997"/>
			<point x="537.30699" y="107.49039"/>
			<point x="499.72547" y="56.24238" type="curve"/>
			<point x="468.86902" y="21.6113"/>
			<point x="392.36564" y="-11"/>
			<point x="300.99219" y="-11" type="curve" smooth="yes"/>
			<point x="227.32978" y="-11"/>
			<point x="135.74089" y="0"/>
			<point x="39.996" y="76" type="curve"/>
			<point x="84.89969" y="149.32294" type="line"/>
			<point x="143.66933" y="118.42125"/>
			<point x="227.4457" y="92.194"/>
			<point x="314.50666" y="92.194" type="curve" smooth="yes"/>
			<point x="446.91068" y="92.194"/>
		</contour>
		<contour>
			<point x="400.03364" y="439.89214" type="curve"/>
			<point x="380.90312" y="289.90837" type="line"/>
			<point x="231.49184" y="375.04306" type="line" smooth="yes"/>
			<point x="124.41874" y="436.05342"/>
			<point x="62.89873" y="494.93232"/>
			<point x="51.32742" y="586.74834" type="curve"/>
			<point x="53.32742" y="619.05185"/>
			<point x="100.29393" y="735.99455"/>
			<point x="143.66933" y="769.00699" type="curve"/>
			<point x="174.47584" y="784.39962"/>
			<point x="261.22975" y="805.92843"/>
			<point x="328.29297" y="805.92843" type="curve" smooth="yes"/>
			<point x="388.84368" y="805.92843"/>
			<point x="444.24593" y="798.601"/>
			<point x="486.76258" y="784.98623" type="curve"/>
			<point x="495.25465" y="775.64781"/>
			<point x="517.43096" y="743.56484"/>
			<point x="517.43096" y="738.68883" type="curve" smooth="yes"/>
			<point x="517.43096" y="722.7878"/>
			<point x="470.12487" y="662.45285"/>
			<point x="457.86902" y="652.00042" type="curve"/>
			<point x="439.55107" y="661.42269"/>
			<point x="381.86817" y="704.78736"/>
			<point x="308.76125" y="704.78736" type="curve" smooth="yes"/>
			<point x="246.52982" y="704.78736"/>
			<point x="192.72863" y="669.4188"/>
			<point x="192.72863" y="619.05185" type="curve" smooth="yes"/>
			<point x="192.72863" y="522.09836"/>
			<point x="396.83564" y="441.60592"/>
		</contour>
	</outline>
</glyph>
<glyph name="T" format="2">
	<advance width="579.78"/>
	<unicode hex="0054"/>
	<guideline x="376.23" y="701.98" angle="0"/>
	<outline>
		<contour>
			<point x="30.003" y="800.471" type="line"/>
			<point x="30.003" y="701.471" type="line"/>
			<point x="111.497" y="705.44"/>
			<point x="235.99" y="707.41"/>
			<point x="294.484" y="707.379" type="curve" smooth="yes"/>
			<point x="349.916" y="707.35"/>
			<point x="471.348" y="705.44"/>
			<point x="549.779" y="701.471" type="curve"/>
			<point x="549.779" y="800.471" type="line"/>
		</contour>
		<contour>
			<point x="363.66779" y="646.85725" type="line"/>
			<point x="225.24014" y="655.20815" type="line"/>
			<point x="225.96976" y="632.76553"/>
			<point x="226.49007" y="608.67385"/>
			<point x="227.27" y="588.414" type="curve"/>
			<point x="227.28" y="153.611" type="line"/>
			<point x="227.28" y="128.688"/>
			<point x="219.873" y="41.229"/>
			<point x="214.225" y="0" type="curve"/>
			<point x="364" y="0" type="line"/>
		</contour>
	</outline>
</glyph>
<glyph name="V" format="2">
	<advance width="636.11"/>
	<unicode hex="0056"/>
	<outline>
		<contour>
			<point x="326.887" y="-10.806" type="curve"/>
			<point x="347.0652" y="99.3557" type="line"/>
			<point x="301.59542" y="109.33979"/>
			<point x="218.946" y="172.63"/>
			<point x="218.331" y="205.633" type="curve" smooth="yes"/>
			<point x="207.546" y="789.373" type="line"/>
			<point x="202.104" y="791.694"/>
			<point x="166.275" y="800.453"/>
			<point x="155.359" y="800.373" type="curve" smooth="yes"/>
			<point x="144.709" y="800.295"/>
			<point x="66.737" y="784.764"/>
			<point x="55.001" y="780.955" type="curve"/>
			<point x="61.52" y="757.609"/>
			<point x="75.37708" y="669.21223"/>
			<point x="76.724" y="587.24" type="curve" smooth="yes"/>
			<point x="80.346" y="366.809" type="line" smooth="yes"/>
			<point x="80.79647" y="339.3937"/>
			<point x="93.071" y="170.861"/>
			<point x="105.306" y="138.689" type="curve"/>
			<point x="151.009" y="73.853"/>
			<point x="295.019" y="-10.806"/>
		</contour>
		<contour>
			<point x="435.693" y="404.828" type="curve"/>
			<point x="435.693" y="128.06901"/>
			<point x="390.25665" y="40.42483"/>
			<point x="386.10254" y="19.11424" type="curve"/>
			<point x="435.12302" y="50.62651"/>
			<point x="497.61983" y="98.65872"/>
			<point x="515.19756" y="120.61408" type="curve"/>
			<point x="535.59595" y="139.92635"/>
			<point x="549.54051" y="158.74733"/>
			<point x="552.692" y="173.212" type="curve" smooth="yes"/>
			<point x="555.799" y="199.553"/>
			<point x="567.88228" y="267.68769"/>
			<point x="569.222" y="349.814" type="curve" smooth="yes"/>
			<point x="573.19" y="593.056" type="line" smooth="yes"/>
			<point x="574.33899" y="663.49027"/>
			<point x="580.534" y="755.31"/>
			<point x="581.109" y="789.373" type="curve"/>
			<point x="575.687" y="791.694"/>
			<point x="538.934" y="800.453"/>
			<point x="528.018" y="800.373" type="curve" smooth="yes"/>
			<point x="517.367" y="800.295"/>
			<point x="433.26" y="784.764"/>
			<point x="421.49" y="780.955" type="curve"/>
			<point x="439.479" y="689.33"/>
			<point x="435.693" y="503.486"/>
		</contour>
	</outline>
</glyph>
<glyph name="underscore" format="2">
	<advance width="576.78"/>
	<unicode hex="005F"/>
	<outline>
		<contour>
			<point x="50.001" y="-36.002" type="line"/>
			<point x="50.001" y="-135.002" type="line"/>
			<point x="121.495" y="-132.033"/>
			<point x="187.855" y="-130.063"/>
			<point x="286.349" y="-130.09399" type="curve" smooth="yes"/>
			<point x="381.78101" y="-130.123"/>
			<point x="458.34601" y="-132.033"/>
			<point x="526.77698" y="-135.002" type="curve"/>
			<point x="526.77698" y="-36.002" type="line"/>
		</contour>
	</outline>
</glyph>
<glyph name="b" format="2">
	<advance width="595"/>
	<unicode hex="0062"/>
	<guideline x="66.31" y="329" angle="0"/>
	<guideline x="66.31" y="485" angle="0"/>
	<guideline x="66.31" y="83" angle="0"/>
	<outline>
		<contour>
			<point x="82.31772" y="149.9547" type="line"/>
			<point x="213.999" y="137.80785" type="line"/>
			<point x="213.999" y="813" type="line"/>
			<point x="209.145" y="816.985"/>
			<point x="169.934" y="828.564"/>
			<point x="159.018" y="828.484" type="curve" smooth="yes"/>
			<point x="148.368" y="828.406"/>
			<point x="60.857" y="789.867"/>
			<point x="54.999" y="783.753" type="curve"/>
			<point x="64.412" y="752.292"/>
			<point x="79.472" y="659.33"/>
			<point x="81.805" y="618.287" type="curve"/>
		</contour>
		<contour>
			<point x="121.70334" y="93.89815"/>
			<point x="76.32044" y="103.35256" type="curve"/>
			<point x="71.956" y="38.82" type="line"/>
			<point x="95.729" y="27.745"/>
			<point x="232.135" y="-11.023"/>
			<point x="275.617" y="-11.023" type="curve" smooth="yes"/>
			<point x="469.597" y="-11.023"/>
			<point x="554.999" y="132.025"/>
			<point x="554.999" y="321" type="curve" smooth="yes"/>
			<point x="554.999" y="483.532"/>
			<point x="458.863" y="600"/>
			<point x="358.999" y="600" type="curve" smooth="yes"/>
			<point x="335.56815" y="600"/>
			<point x="302.23629" y="591.85809"/>
			<point x="269.25245" y="580.69065" type="curve"/>
			<point x="265.58973" y="497.15581" type="line"/>
			<point x="286.48895" y="506.32537"/>
			<point x="306.18348" y="513"/>
			<point x="318.829" y="513" type="curve" smooth="yes"/>
			<point x="355.918" y="513"/>
			<point x="423.999" y="478.171"/>
			<point x="423.999" y="293" type="curve" smooth="yes"/>
			<point x="423.999" y="123.91"/>
			<point x="363.481" y="73"/>
			<point x="292.973" y="73" type="curve" smooth="yes"/>
			<point x="211.85072" y="73"/>
		</contour>
	</outline>
</glyph>
<glyph name="c" format="2">
	<advance width="516.94"/>
	<unicode hex="0063"/>
	<outline>
		<contour>
			<point x="41.04252" y="298.16377" type="curve"/>
			<point x="172.16004" y="316.24792" type="line"/>
			<point x="172.56732" y="370.08984"/>
			<point x="175.05429" y="429.15316"/>
			<point x="185.547" y="457.497" type="curve"/>
			<point x="195.466" y="468.98"/>
			<point x="236.323" y="520.104"/>
			<point x="285.343" y="513" type="curve" smooth="yes"/>
			<point x="340.542" y="505"/>
			<point x="388.97" y="473.201"/>
			<point x="403.302" y="472.829" type="curve"/>
			<point x="412.891" y="474.007"/>
			<point x="456.945" y="535.69"/>
			<point x="456.945" y="544.131" type="curve" smooth="yes"/>
			<point x="456.945" y="551.946"/>
			<point x="437.247" y="583.307"/>
			<point x="432.95" y="589.831" type="curve"/>
			<point x="418.891" y="594.333"/>
			<point x="374.189" y="599.957"/>
			<point x="326.814" y="599.957" type="curve" smooth="yes"/>
			<point x="186.86382" y="599.957"/>
			<point x="54.38879" y="517.9457"/>
		</contour>
		<contour>
			<point x="173.29093" y="252.03621" type="curve"/>
			<point x="40.00225" y="249.61741" type="line"/>
			<point x="42.85519" y="82.86124"/>
			<point x="143.45435" y="-11"/>
			<point x="277.121" y="-11" type="curve" smooth="yes"/>
			<point x="339.407" y="-11"/>
			<point x="412.029" y="4.804"/>
			<point x="486.94" y="57" type="curve"/>
			<point x="454.94" y="121" type="line"/>
			<point x="417.029" y="101.066"/>
			<point x="357.257" y="72.957"/>
			<point x="293.518" y="72.957" type="curve" smooth="yes"/>
			<point x="227.68677" y="72.957"/>
			<point x="181.20488" y="121.66174"/>
		</contour>
	</outline>
</glyph>
<glyph name="d" format="2">
	<advance width="584.19"/>
	<unicode hex="0064"/>
	<outline>
		<contour>
			<point x="529.19" y="813" type="curve"/>
			<point x="524.19" y="817"/>
			<point x="485.19" y="829"/>
			<point x="474.19" y="828" type="curve"/>
			<point x="463.19" y="828"/>
			<point x="386.19" y="790"/>
			<point x="380.19" y="784" type="curve"/>
			<point x="380.19" y="116.695" type="line"/>
			<point x="435.003" y="0" type="line"/>
			<point x="521.908" y="0.413" type="line"/>
			<point x="519.247" y="17.285"/>
			<point x="511.947" y="93.599"/>
			<point x="512.054" y="116.779" type="curve"/>
			<point x="512.065" y="618.287" type="line"/>
			<point x="514.471" y="667.311"/>
			<point x="519.766" y="781.627"/>
		</contour>
		<contour>
			<point x="140.94905" y="566.38653" type="curve"/>
			<point x="341.7873" y="503.19748"/>
			<point x="403.48533" y="477.03419"/>
			<point x="420.461" y="466" type="curve"/>
			<point x="442.591" y="541.878" type="line"/>
			<point x="424.591" y="561.878"/>
			<point x="305.278" y="600"/>
			<point x="249.241" y="600" type="curve" smooth="yes"/>
			<point x="208.83253" y="600"/>
			<point x="172.03081" y="589.12439"/>
		</contour>
		<contour>
			<point x="232.03662" y="489.23524" type="curve"/>
			<point x="97.85394" y="519.80663" type="line"/>
			<point x="61.53772" y="467.95471"/>
			<point x="39.999" y="391.24542"/>
			<point x="39.999" y="282.522" type="curve" smooth="yes"/>
			<point x="39.999" y="75"/>
			<point x="160.67" y="-11"/>
			<point x="244.7" y="-11" type="curve" smooth="yes"/>
			<point x="285.02633" y="-11"/>
			<point x="324.61415" y="4.14653"/>
			<point x="359.92699" y="22.70117" type="curve"/>
			<point x="337.05504" y="92.47312" type="line"/>
			<point x="315.39284" y="81.20095"/>
			<point x="293.18709" y="73"/>
			<point x="275.132" y="73" type="curve" smooth="yes"/>
			<point x="218.225" y="73"/>
			<point x="169.854" y="118.466"/>
			<point x="169.854" y="300" type="curve" smooth="yes"/>
			<point x="169.854" y="406.0712"/>
			<point x="198.84326" y="461.55477"/>
		</contour>
	</outline>
</glyph>
<glyph name="f" format="2">
	<advance width="396.17"/>
	<unicode hex="0066"/>
	<outline>
		<contour>
			<point x="30.003" y="512.179" type="line"/>
			<point x="363.98" y="512.179" type="line"/>
			<point x="363.98" y="600.179" type="line"/>
			<point x="344.53107" y="599.09244"/>
			<point x="294.77679" y="596.50085"/>
			<point x="227.54258" y="596.1376" type="curve"/>
			<point x="225.7919" y="624.38278"/>
			<point x="224.096" y="657.27739"/>
			<point x="224.096" y="684.433" type="curve" smooth="yes"/>
			<point x="224.096" y="713.788"/>
			<point x="255.243" y="739.012"/>
			<point x="287.168" y="739.012" type="curve" smooth="yes"/>
			<point x="325.98" y="739.012"/>
			<point x="361.254" y="726.278"/>
			<point x="387.362" y="712.337" type="curve"/>
			<point x="395.73" y="720.932"/>
			<point x="431.168" y="770.293"/>
			<point x="431.168" y="777.835" type="curve" smooth="yes"/>
			<point x="431.168" y="784.695"/>
			<point x="414.004" y="813.813"/>
			<point x="404.421" y="824.076" type="curve"/>
			<point x="385.362" y="829.254"/>
			<point x="356.17" y="834.818"/>
			<point x="301.285" y="834.818" type="curve" smooth="yes"/>
			<point x="189.17" y="834.818"/>
			<point x="124.031" y="777.892"/>
			<point x="84.313" y="731.266" type="curve"/>
			<point x="89.471" y="699.805"/>
			<point x="100.28" y="639.58353"/>
			<point x="100.28" y="598.287" type="curve" smooth="yes"/>
			<point x="100.28" y="588.98152" type="line"/>
			<point x="76.40801" y="585.69564"/>
			<point x="49.03429" y="581.54523"/>
			<point x="30.003" y="576.851" type="curve"/>
		</contour>
		<contour>
			<point x="230.8041" y="461.13217" type="line"/>
			<point x="100.28" y="472.21572" type="line"/>
			<point x="100.28" y="116.779" type="line" smooth="yes"/>
			<point x="100.28" y="90.82592"/>
			<point x="82.722" y="19.987"/>
			<point x="79.76" y="-0.182" type="curve"/>
			<point x="227.422" y="-0.182" type="line"/>
		</contour>
	</outline>
</glyph>
<glyph name="g" format="2">
	<advance width="582.52"/>
	<unicode hex="0067"/>
	<outline>
		<contour>
			<point x="527.517" y="584.92" type="curve"/>
			<point x="522.663" y="588.905"/>
			<point x="485.246" y="600"/>
			<point x="474.33" y="599.92" type="curve" smooth="yes"/>
			<point x="463.68" y="599.842"/>
			<point x="386.088" y="564.124"/>
			<point x="380.23" y="554.092" type="curve"/>
			<point x="387.515" y="32.076"/>
			<point x="385.337" y="-10.938"/>
			<point x="385.337" y="-40.4" type="curve" smooth="yes"/>
			<point x="385.337" y="-70.681"/>
			<point x="352.017" y="-120.64"/>
			<point x="301.951" y="-120.64" type="curve" smooth="yes"/>
			<point x="233.23" y="-120.64"/>
			<point x="137.57" y="-81.773"/>
			<point x="105.321" y="-68.206" type="curve"/>
			<point x="60.369" y="-139.701" type="line"/>
			<point x="89.724" y="-156.682"/>
			<point x="240.854" y="-215.538"/>
			<point x="289.433" y="-215.538" type="curve" smooth="yes"/>
			<point x="327.377" y="-215.538"/>
			<point x="437.742" y="-197.668"/>
			<point x="446.369" y="-191.701" type="curve" smooth="yes"/>
			<point x="455.142" y="-185.634"/>
			<point x="520.369" y="-114.169"/>
			<point x="520.416" y="-91.053" type="curve"/>
			<point x="514.654" y="-31.723"/>
			<point x="515.943" y="33.37"/>
			<point x="513.61" y="74.413" type="curve"/>
			<point x="513.61" y="399.793" type="line"/>
			<point x="514.974" y="458.724"/>
			<point x="526.89" y="553.244"/>
		</contour>
		<contour>
			<point x="322.81331" y="7.45769" type="curve"/>
			<point x="327.58762" y="81.70287" type="line"/>
			<point x="309.13309" y="75.72026"/>
			<point x="292.17727" y="73"/>
			<point x="277.854" y="73" type="curve" smooth="yes"/>
			<point x="216.854" y="73"/>
			<point x="169.854" y="132"/>
			<point x="169.854" y="300" type="curve" smooth="yes"/>
			<point x="169.854" y="462"/>
			<point x="237.854" y="513"/>
			<point x="276.854" y="513" type="curve" smooth="yes"/>
			<point x="289.65322" y="513"/>
			<point x="308.91554" y="509.14952"/>
			<point x="329.02806" y="503.65405" type="curve"/>
			<point x="325.87872" y="582.79982" type="line"/>
			<point x="296.16334" y="592.75227"/>
			<point x="265.13931" y="600"/>
			<point x="238.854" y="600" type="curve" smooth="yes"/>
			<point x="129.854" y="600"/>
			<point x="39.999" y="466"/>
			<point x="39.999" y="308" type="curve" smooth="yes"/>
			<point x="39.999" y="84.741"/>
			<point x="150.588" y="-11"/>
			<point x="240.89" y="-11" type="curve" smooth="yes"/>
			<point x="265.26351" y="-11"/>
			<point x="293.7325" y="-3.65007"/>
		</contour>
	</outline>
</glyph>
<glyph name="h" format="2">
	<advance width="549.82"/>
	<unicode hex="0068"/>
	<outline>
		<contour>
			<point x="59.426" y="0.413" type="curve"/>
			<point x="200.665" y="0.413" type="line"/>
			<point x="201.002" y="812.92" type="line"/>
			<point x="196.148" y="816.905"/>
			<point x="158.731" y="828"/>
			<point x="147.815" y="827.92" type="curve" smooth="yes"/>
			<point x="137.165" y="827.842"/>
			<point x="50.86" y="791.034"/>
			<point x="45.002" y="784.92" type="curve"/>
			<point x="54.426" y="753.547"/>
			<point x="66.863" y="667.311"/>
			<point x="69.269" y="618.287" type="curve"/>
			<point x="69.28" y="116.779" type="line"/>
			<point x="69.387" y="93.463"/>
			<point x="62.087" y="17.091"/>
		</contour>
		<contour>
			<point x="256.12525" y="565.30986" type="curve"/>
			<point x="253.1845" y="492.62006" type="line"/>
			<point x="268.7263" y="498.66238"/>
			<point x="284.00648" y="503"/>
			<point x="295.221" y="503" type="curve" smooth="yes"/>
			<point x="329.653" y="503"/>
			<point x="363.04" y="472.121"/>
			<point x="363.04" y="457" type="curve" smooth="yes"/>
			<point x="363.04" y="0" type="line"/>
			<point x="504.819" y="0.032" type="line"/>
			<point x="502.356" y="17.057"/>
			<point x="494.871" y="93.17"/>
			<point x="494.785" y="116.283" type="curve"/>
			<point x="494.79" y="397.791" type="line"/>
			<point x="497.086" y="438.815"/>
			<point x="496.539" y="470.879"/>
			<point x="499.04" y="502" type="curve"/>
			<point x="499.04" y="514.468"/>
			<point x="459.883" y="573.933"/>
			<point x="451.11" y="580" type="curve" smooth="yes"/>
			<point x="442.543" y="585.925"/>
			<point x="356.648" y="600"/>
			<point x="337.11" y="600" type="curve" smooth="yes"/>
			<point x="322.45206" y="600"/>
			<point x="289.62738" y="584.11374"/>
		</contour>
	</outline>
</glyph>
<glyph name="i" format="2">
	<advance width="276.24"/>
	<unicode hex="0069"/>
	<anchor x="138" y="0" name="bottom"/>
	<outline>
		<contour>
			<point x="138.122" y="671.965" type="curve" smooth="yes"/>
			<point x="184.028" y="671.965"/>
			<point x="221.242" y="703.788"/>
			<point x="221.242" y="749.212" type="curve" smooth="yes"/>
			<point x="221.242" y="794.636"/>
			<point x="184.028" y="826.458"/>
			<point x="138.122" y="826.458" type="curve" smooth="yes"/>
			<point x="92.216" y="826.458"/>
			<point x="55.001" y="794.636"/>
			<point x="55.001" y="749.212" type="curve" smooth="yes"/>
			<point x="55.001" y="703.788"/>
			<point x="92.216" y="671.965"/>
		</contour>
		<component base="idotless"/>
	</outline>
</glyph>
<glyph name="n" format="2">
	<advance width="550.82"/>
	<unicode hex="006E"/>
	<guideline x="60.04" y="299" angle="0"/>
	<anchor x="116.65629" y="600" name="top"/>
	<anchor x="275" y="0" name="bottom"/>
	<outline>
		<contour>
			<point x="69.16036" y="400.15354" type="curve"/>
			<point x="244.0172" y="491.52952"/>
			<point x="279.96959" y="503"/>
			<point x="296.221" y="503" type="curve" smooth="yes"/>
			<point x="330.653" y="503"/>
			<point x="364.04" y="472.121"/>
			<point x="364.04" y="457" type="curve" smooth="yes"/>
			<point x="364.04" y="0" type="line"/>
			<point x="505.819" y="0.032" type="line"/>
			<point x="503.724" y="17.057"/>
			<point x="495.78459" y="93.16694"/>
			<point x="495.785" y="116.283" type="curve" smooth="yes"/>
			<point x="495.79" y="397.791" type="line"/>
			<point x="498.086" y="438.815"/>
			<point x="497.539" y="470.879"/>
			<point x="500.04" y="502" type="curve" smooth="yes"/>
			<point x="500.04" y="514.468"/>
			<point x="460.883" y="573.933"/>
			<point x="452.11" y="580" type="curve" smooth="yes"/>
			<point x="443.543" y="585.925"/>
			<point x="357.648" y="600"/>
			<point x="338.11" y="600" type="curve" smooth="yes"/>
			<point x="314.5434" y="600"/>
			<point x="244.0172" y="558.93524"/>
			<point x="199.21614" y="530.70289" type="curve"/>
			<point x="199.339" y="585.925" type="line"/>
			<point x="194.485" y="588.928"/>
			<point x="159.731" y="600"/>
			<point x="148.815" y="599.92" type="curve" smooth="yes"/>
			<point x="139.165" y="599.842"/>
			<point x="50.86" y="563.034"/>
			<point x="45.002" y="556.92" type="curve"/>
			<point x="54.28536" y="526.0152"/>
			<point x="66.49246" y="441.87267"/>
		</contour>
		<contour>
			<point x="59.426" y="0.413" type="curve"/>
			<point x="201.665" y="0.413" type="line"/>
			<point x="201.82085" y="403.07359" type="line"/>
			<point x="69.27585" y="353.31193" type="line"/>
			<point x="69.28" y="116.779" type="line" smooth="yes"/>
			<point x="69.273" y="93.745"/>
			<point x="61.919" y="17.468"/>
		</contour>
	</outline>
</glyph>
<glyph name="o" format="2">
	<advance width="551.19"/>
	<unicode hex="006F"/>
	<guideline x="-653.8" y="0" angle="0"/>
	<guideline x="11.2" y="298" angle="0"/>
	<guideline x="11.2" y="503" angle="0"/>
	<guideline x="11.2" y="195" angle="0"/>
	<guideline x="11.2" y="430" angle="0"/>
	<guideline x="275.2" y="0" angle="0"/>
	<guideline x="153.2" y="0" angle="0"/>
	<guideline x="403.2" y="0" angle="0"/>
	<guideline x="592.2" y="0" angle="0"/>
	<guideline x="355.2" y="0" angle="0"/>
	<guideline x="789.2" y="0" angle="0"/>
	<guideline x="859.2" y="0" angle="0"/>
	<guideline x="11.2" y="416" angle="0"/>
	<guideline x="11.2" y="-11" angle="0"/>
	<anchor x="261.84313" y="600" name="top"/>
	<anchor x="276" y="0" name="bottom"/>
	<anchor x="276" y="300" name="center"/>
	<anchor x="531.19" y="600" name="topright"/>
	<anchor x="496" y="10" name="ogonek"/>
	<outline>
		<contour>
			<point x="247.71689" y="-10.86036" type="curve"/>
			<point x="253.99192" y="78.0369" type="line"/>
			<point x="200.97388" y="93.54552"/>
			<point x="171.153" y="155.45047"/>
			<point x="171.153" y="300.612" type="curve" smooth="yes"/>
			<point x="171.153" y="358.271"/>
			<point x="176.337" y="426.06"/>
			<point x="184.064" y="457.738" type="curve"/>
			<point x="191.69813" y="468.671"/>
			<point x="217.82877" y="503.01729"/>
			<point x="254.11481" y="515.4503" type="curve"/>
			<point x="253.57666" y="602.82113" type="line"/>
			<point x="161.20746" y="587.69968"/>
			<point x="40" y="490.76883"/>
			<point x="40" y="263.928" type="curve" smooth="yes"/>
			<point x="40" y="114.27333"/>
			<point x="118.41339" y="-6.20497"/>
		</contour>
		<contour>
			<point x="310.15774" y="78.01753" type="curve"/>
			<point x="289.48748" y="-7.34142" type="line"/>
			<point x="393.0684" y="12.45277"/>
			<point x="511.193" y="114.11071"/>
			<point x="511.193" y="335.029" type="curve" smooth="yes"/>
			<point x="511.193" y="476.21551"/>
			<point x="437.9803" y="587.15631"/>
			<point x="310.97331" y="603.01048" type="curve"/>
			<point x="308.86757" y="515.61241" type="line"/>
			<point x="352.94617" y="500.35452"/>
			<point x="380.04" y="442.46366"/>
			<point x="380.04" y="298.345" type="curve" smooth="yes"/>
			<point x="380.04" y="213.652"/>
			<point x="371.101" y="132.918"/>
			<point x="367.129" y="122.219" type="curve"/>
			<point x="355.18208" y="104.84813"/>
			<point x="331.09024" y="86.08353"/>
		</contour>
	</outline>
</glyph>
<glyph name="p" format="2">
	<advance width="580"/>
	<unicode hex="0070"/>
	<outline>
		<contour>
			<point x="68" y="216.79196" type="line"/>
			<point x="200" y="136.56943" type="line"/>
			<point x="200" y="585" type="line"/>
			<point x="195" y="589"/>
			<point x="156" y="601"/>
			<point x="145" y="600" type="curve" smooth="yes"/>
			<point x="134" y="600"/>
			<point x="46" y="556"/>
			<point x="40" y="550" type="curve"/>
			<point x="46.607" y="513"/>
			<point x="66" y="411.727"/>
			<point x="68" y="398.34" type="curve"/>
		</contour>
		<contour>
			<point x="57" y="-210" type="curve"/>
			<point x="200" y="-210" type="line"/>
			<point x="200" y="16.694" type="line"/>
			<point x="236.879" y="2.13"/>
			<point x="277.611" y="-11"/>
			<point x="297.181" y="-11" type="curve" smooth="yes"/>
			<point x="392.842" y="-11"/>
			<point x="540" y="73"/>
			<point x="540" y="313" type="curve" smooth="yes"/>
			<point x="540" y="496.961"/>
			<point x="431.156" y="600"/>
			<point x="330" y="600" type="curve" smooth="yes"/>
			<point x="317.27" y="600"/>
			<point x="288.269" y="590.579"/>
			<point x="257.226" y="578.318" type="curve"/>
			<point x="252.494" y="499.142" type="line"/>
			<point x="270.186" y="507.161"/>
			<point x="286.431" y="513"/>
			<point x="296" y="513" type="curve" smooth="yes"/>
			<point x="341.551" y="513"/>
			<point x="410" y="456"/>
			<point x="410" y="290" type="curve" smooth="yes"/>
			<point x="410" y="112"/>
			<point x="337.631" y="72"/>
			<point x="273.392" y="72" type="curve"/>
			<point x="225.09621" y="72"/>
			<point x="82.14464" y="146.66107"/>
			<point x="68" y="152.183" type="curve"/>
			<point x="68" y="-58.49" type="line"/>
			<point x="65.901" y="-81.846"/>
			<point x="58.703" y="-192.768"/>
		</contour>
	</outline>
</glyph>
<glyph name="q" format="2">
	<advance width="580.15"/>
	<unicode hex="0071"/>
	<guideline x="-13.81" y="520" angle="0"/>
	<guideline x="-13.81" y="83" angle="0"/>
	<guideline x="-13.81" y="553" angle="0"/>
	<outline>
		<contour>
			<point x="282.854" y="513" type="curve"/>
			<point x="325.57958" y="513"/>
			<point x="494.0139" y="423.44758"/>
			<point x="512.87144" y="415.45014" type="curve"/>
			<point x="516.87081" y="459.31858"/>
			<point x="526.75122" y="551.29635"/>
			<point x="530.146" y="579.234" type="curve"/>
			<point x="522.417" y="588.209"/>
			<point x="486.852" y="603.655"/>
			<point x="475.936" y="603.575" type="curve" smooth="yes"/>
			<point x="466.97043" y="603.50934"/>
			<point x="412.64376" y="575.69988"/>
			<point x="389.29232" y="560.23468" type="curve"/>
			<point x="346.90226" y="580.33811"/>
			<point x="290.64235" y="600"/>
			<point x="248.854" y="600" type="curve" smooth="yes"/>
			<point x="136.854" y="600"/>
			<point x="39.999" y="474.467"/>
			<point x="39.999" y="282.522" type="curve" smooth="yes"/>
			<point x="39.999" y="113.329"/>
			<point x="136.472" y="-11.009"/>
			<point x="252.854" y="-11.009" type="curve" smooth="yes"/>
			<point x="272.51968" y="-11.009"/>
			<point x="300.78655" y="-1.63711"/>
			<point x="328.57958" y="9.79179" type="curve"/>
			<point x="323.35704" y="83.7485" type="line"/>
			<point x="308.06708" y="77.28411"/>
			<point x="292.44574" y="73"/>
			<point x="277.854" y="73" type="curve" smooth="yes"/>
			<point x="217.695" y="73"/>
			<point x="169.854" y="132"/>
			<point x="169.854" y="300" type="curve" smooth="yes"/>
			<point x="169.854" y="466"/>
			<point x="243.854" y="513"/>
		</contour>
		<contour>
			<point x="379.917" y="-209.425" type="line"/>
			<point x="522.417" y="-209.425" type="line"/>
			<point x="521.004" y="-181.003"/>
			<point x="514.087" y="-99.372"/>
			<point x="511.549" y="-58.276" type="curve"/>
			<point x="511.54438" y="364.63165" type="line"/>
			<point x="379.917" y="407.42135" type="line"/>
		</contour>
	</outline>
</glyph>
<glyph name="s" format="2">
	<advance width="466.92"/>
	<unicode hex="0073"/>
	<guideline x="42.39" y="204.14" angle="270"/>
	<guideline x="436.39" y="204.14" angle="270"/>
	<outline>
		<contour>
			<point x="57.43185" y="459.65505" type="curve"/>
			<point x="222.03816" y="369.94872"/>
			<point x="268.7997" y="345.80186"/>
			<point x="316.474" y="319.211" type="curve" smooth="yes"/>
			<point x="401.23245" y="271.93605"/>
			<point x="436.924" y="229.161"/>
			<point x="436.924" y="171.459" type="curve"/>
			<point x="436.924" y="136.832"/>
			<point x="399.201" y="55.316"/>
			<point x="362.486" y="24.734" type="curve"/>
			<point x="331.865" y="3.417"/>
			<point x="289.22463" y="-11"/>
			<point x="230.879" y="-11" type="curve" smooth="yes"/>
			<point x="168.593" y="-11"/>
			<point x="114.911" y="-1.759"/>
			<point x="40" y="50.437" type="curve"/>
			<point x="72" y="114.437" type="line"/>
			<point x="109.911" y="94.503"/>
			<point x="150.743" y="72.957"/>
			<point x="214.482" y="72.957" type="curve" smooth="yes"/>
			<point x="286.903" y="72.957"/>
			<point x="310.06" y="116.332"/>
			<point x="310.06" y="169" type="curve" smooth="yes"/>
			<point x="310.06" y="200.633"/>
			<point x="255.952" y="230.581"/>
			<point x="186.694" y="262.092" type="curve" smooth="yes"/>
			<point x="101.898" y="300.672"/>
			<point x="49.645" y="352.764"/>
			<point x="49.645" y="423.935" type="curve" smooth="yes"/>
			<point x="49.645" y="439.68639"/>
			<point x="52.54882" y="445.04436"/>
		</contour>
		<contour>
			<point x="168.593" y="471.12433" type="curve"/>
			<point x="82.46854" y="509.16013" type="line"/>
			<point x="99.1713" y="544.72408"/>
			<point x="119.28998" y="563.55501"/>
			<point x="135.388" y="575.807" type="curve"/>
			<point x="166.55" y="590.642"/>
			<point x="218.53335" y="603"/>
			<point x="271.00375" y="603" type="curve" smooth="yes"/>
			<point x="318.37875" y="603"/>
			<point x="380.137" y="594.376"/>
			<point x="396.196" y="589.874" type="curve"/>
			<point x="400.493" y="583.35"/>
			<point x="420.191" y="551.989"/>
			<point x="420.191" y="548.174" type="curve" smooth="yes"/>
			<point x="420.191" y="535.733"/>
			<point x="376.137" y="483.05"/>
			<point x="366.548" y="474.872" type="curve"/>
			<point x="352.216" y="482.244"/>
			<point x="303.98009" y="513.043"/>
			<point x="246.78109" y="513.043" type="curve" smooth="yes"/>
			<point x="214.10108" y="513.043"/>
			<point x="178.08275" y="496.92128"/>
		</contour>
	</outline>
</glyph>
<glyph name="questiondown" format="2">
	<advance width="527.95"/>
	<unicode hex="00BF"/>
	<outline>
		<contour>
			<point x="73.10666" y="84.82399" type="curve"/>
			<point x="197.42057" y="23.87515" type="line"/>
			<point x="225.62897" y="86.72814"/>
			<point x="288.30955" y="149.80358"/>
			<point x="340.879" y="195.033" type="curve"/>
			<point x="349.362" y="240.215"/>
			<point x="354.329" y="311.932"/>
			<point x="354.329" y="354.58" type="curve"/>
			<point x="335.339" y="366.263"/>
			<point x="315.207" y="375.617"/>
			<point x="304.661" y="377.482" type="curve" smooth="yes"/>
			<point x="294.217" y="379.33"/>
			<point x="221.002" y="355.9"/>
			<point x="214.024" y="351.656" type="curve"/>
			<point x="235.885" y="232.536" type="line"/>
			<point x="215.81727" y="210.99492"/>
			<point x="101.1853" y="113.95077"/>
		</contour>
		<contour>
			<point x="189.475" y="552.647" type="curve" smooth="yes"/>
			<point x="189.475" y="598.071"/>
			<point x="226.275" y="629.894"/>
			<point x="272.595" y="629.894" type="curve" smooth="yes"/>
			<point x="318.501" y="629.894"/>
			<point x="355.716" y="598.071"/>
			<point x="355.716" y="552.647" type="curve" smooth="yes"/>
			<point x="355.716" y="507.223"/>
			<point x="318.501" y="475.401"/>
			<point x="272.595" y="475.401" type="curve" smooth="yes"/>
			<point x="226.689" y="475.401"/>
			<point x="189.475" y="507.223"/>
		</contour>
		<contour>
			<point x="181.83966" y="-28.1641" type="line"/>
			<point x="55.4854" y="-8.35299" type="line"/>
			<point x="54.44656" y="-36.22549"/>
			<point x="55.02172" y="-66.26751"/>
			<point x="57.89" y="-91.976" type="curve"/>
			<point x="88.742" y="-167.301"/>
			<point x="148.301" y="-225.488"/>
			<point x="247.437" y="-225.488" type="curve" smooth="yes"/>
			<point x="361.717" y="-225.488"/>
			<point x="438.027" y="-163.883"/>
			<point x="482.95" y="-96.819" type="curve"/>
			<point x="404.136" y="-48.43" type="line"/>
			<point x="392.574" y="-63.418"/>
			<point x="334.193" y="-138.309"/>
			<point x="272.595" y="-138.309" type="curve" smooth="yes"/>
			<point x="220.666" y="-138.309"/>
			<point x="188.332" y="-66.718"/>
			<point x="182.353" y="-38.738" type="curve"/>
		</contour>
	</outline>
</glyph>
<glyph name="ntilde" format="2">
	<advance width="568.52"/>
	<unicode hex="00F1"/>
	<anchor x="116.65629" y="600" name="top"/>
	<anchor x="275" y="0" name="bottom"/>
	<outline>
		<contour>
			<point x="460.883" y="395.99577"/>
			<point x="495.78953" y="370.08207" type="curve"/>
			<point x="495.79" y="397.791" type="line"/>
			<point x="498.086" y="438.815"/>
			<point x="497.539" y="470.879"/>
			<point x="500.04" y="502" type="curve" smooth="yes"/>
			<point x="500.04" y="514.468"/>
			<point x="460.883" y="573.933"/>
			<point x="452.11" y="580" type="curve" smooth="yes"/>
			<point x="443.543" y="585.925"/>
			<point x="357.648" y="600"/>
			<point x="338.11" y="600" type="curve" smooth="yes"/>
			<point x="314.5434" y="600"/>
			<point x="244.0172" y="558.93524"/>
			<point x="199.21614" y="530.70289" type="curve"/>
			<point x="199.339" y="585.925" type="line"/>
			<point x="194.485" y="588.928"/>
			<point x="159.731" y="600"/>
			<point x="148.815" y="599.92" type="curve" smooth="yes"/>
			<point x="139.165" y="599.842"/>
			<point x="50.86" y="563.034"/>
			<point x="45.002" y="556.92" type="curve"/>
			<point x="54.28536" y="526.0152"/>
			<point x="66.49246" y="441.87267"/>
			<point x="69.27617" y="400.21406" type="curve"/>
			<point x="69.28" y="116.779" type="line" smooth="yes"/>
			<point x="69.273" y="93.745"/>
			<point x="61.919" y="17.468"/>
			<point x="59.426" y="0.413" type="curve"/>
			<point x="201.665" y="0.413" type="line"/>
			<point x="201.8188" y="467.27968" type="line"/>
			<point x="262.73254" y="497.88537"/>
			<point x="290.36906" y="503"/>
			<point x="304.221" y="503" type="curve" smooth="yes"/>
			<point x="331.98581" y="503"/>
		</contour>
		<component base="tilde" xOffset="74.652"/>
		<contour>
			<point x="495.78869" y="323.81488" type="line"/>
			<point x="364.04" y="403.74326" type="line"/>
			<point x="364.04" y="0" type="line"/>
			<point x="505.819" y="0.032" type="line"/>
			<point x="503.724" y="17.057"/>
			<point x="495.78459" y="93.16694"/>
			<point x="495.785" y="116.283" type="curve" smooth="yes"/>
		</contour>
	</outline>
</glyph>
<glyph name="quotedblleft" format="2">
	<advance width="427.76"/>
	<unicode hex="201C"/>
	<outline>
		<contour>
			<point x="397.76279" y="757.04828" type="line"/>
			<point x="368.14078" y="696.54126"/>
			<point x="356.14078" y="623.79028"/>
			<point x="373.52777" y="531.54828" type="curve"/>
			<point x="359.87778" y="513.46625"/>
			<point x="346.58279" y="495.38428"/>
			<point x="336.13477" y="487.67728" type="curve"/>
			<point x="323.63077" y="482.33026"/>
			<point x="262.32379" y="476.06628"/>
			<point x="231.05579" y="487.67728" type="curve"/>
			<point x="225.97878" y="511.72827"/>
			<point x="208.20378" y="645.28229"/>
			<point x="345.09879" y="799.56329" type="curve"/>
		</contour>
		<contour>
			<point x="200.30177" y="757.04828" type="line"/>
			<point x="170.67978" y="696.54126"/>
			<point x="158.67978" y="623.79028"/>
			<point x="176.06677" y="531.54828" type="curve"/>
			<point x="162.41678" y="513.46625"/>
			<point x="149.12178" y="495.38428"/>
			<point x="138.67378" y="487.67728" type="curve"/>
			<point x="126.16978" y="482.33026"/>
			<point x="64.86278" y="476.06628"/>
			<point x="33.59478" y="487.67728" type="curve"/>
			<point x="28.51778" y="511.72827"/>
			<point x="10.74278" y="645.28229"/>
			<point x="147.63779" y="799.56329" type="curve"/>
		</contour>
	</outline>
</glyph>
<glyph name="leftRightArrow" format="2">
	<advance width="1094"/>
	<unicode hex="2194"/>
	<guideline x="172" y="724" angle="0"/>
	<guideline x="172" y="13" angle="0"/>
	<guideline x="172" y="650" angle="0"/>
	<guideline x="172" y="-72" angle="0"/>
	<outline>
		<contour>
			<point x="562.32872" y="244.20385" type="line"/>
			<point x="585.46684" y="414.25298" type="line"/>
			<point x="861" y="415" type="line"/>
			<point x="836" y="397" type="line"/>
			<point x="785" y="480"/>
			<point x="737" y="562"/>
			<point x="670" y="664" type="curve"/>
			<point x="813" y="740" type="line"/>
			<point x="862" y="643" type="line"/>
			<point x="906" y="573"/>
			<point x="1044" y="348"/>
			<point x="1044" y="338" type="curve"/>
			<point x="1044" y="331"/>
			<point x="905" y="97"/>
			<point x="862" y="28" type="curve"/>
			<point x="813" y="-70" type="line"/>
			<point x="670" y="7" type="line"/>
			<point x="735" y="106"/>
			<point x="781" y="185"/>
			<point x="831" y="266" type="curve"/>
			<point x="852" y="245" type="line"/>
		</contour>
		<contour>
			<point x="533.75754" y="414.00237" type="line"/>
			<point x="500.80351" y="243.88628" type="line"/>
			<point x="233" y="242" type="line"/>
			<point x="258" y="260" type="line"/>
			<point x="309" y="177"/>
			<point x="357" y="95"/>
			<point x="424" y="-8" type="curve"/>
			<point x="281" y="-84" type="line"/>
			<point x="232" y="14" type="line"/>
			<point x="188" y="84"/>
			<point x="50" y="309"/>
			<point x="50" y="319" type="curve"/>
			<point x="50" y="326"/>
			<point x="189" y="560"/>
			<point x="232" y="629" type="curve"/>
			<point x="281" y="726" type="line"/>
			<point x="424" y="650" type="line"/>
			<point x="359" y="551"/>
			<point x="313" y="472"/>
			<point x="263" y="391" type="curve"/>
			<point x="242" y="412" type="line"/>
		</contour>
	</outline>
</glyph>
<glyph name="pic.biblio" format="2">
	<advance width="1004"/>
	<guideline x="-10" y="729" angle="0"/>
	<guideline x="20" y="0" angle="0"/>
	<guideline x="536" y="0" angle="0"/>
	<guideline x="285" y="0" angle="0"/>
	<anchor x="107" y="600" name="top"/>
	<anchor x="265" y="0" name="bottom"/>
	<anchor x="487" y="10" name="ogonek"/>
	<anchor x="1290" y="-569" name="topleft"/>
	<outline>
		<contour>
			<point x="947.72643" y="666.46788" type="curve"/>
			<point x="849.13889" y="604.9431" type="line"/>
			<point x="849.69291" y="595.70198"/>
			<point x="850" y="586.62067"/>
			<point x="850" y="578" type="curve" smooth="yes"/>
			<point x="850" y="290" type="line" smooth="yes"/>
			<point x="850" y="236"/>
			<point x="845" y="187"/>
			<point x="840" y="158" type="curve"/>
			<point x="764" y="179"/>
			<point x="637" y="185"/>
			<point x="553" y="160" type="curve"/>
			<point x="553" y="665" type="line"/>
			<point x="691.25612" y="691.51487"/>
			<point x="784.67561" y="677.67677"/>
			<point x="836.65513" y="652.35747" type="curve"/>
			<point x="923.81588" y="720.13885" type="line"/>
			<point x="907.30655" y="730.90516"/>
			<point x="893.33759" y="739.46496"/>
			<point x="887" y="742" type="curve" smooth="yes"/>
			<point x="773" y="763"/>
			<point x="663" y="763"/>
			<point x="550" y="742" type="curve"/>
			<point x="508" y="703" type="line"/>
			<point x="450" y="742" type="line"/>
			<point x="349" y="763"/>
			<point x="238" y="763"/>
			<point x="136" y="742" type="curve"/>
			<point x="50" y="694" type="line"/>
			<point x="60" y="674"/>
			<point x="64" y="521"/>
			<point x="64" y="563" type="curve" smooth="yes"/>
			<point x="64" y="669.44515"/>
			<point x="68.64336" y="238.03454"/>
			<point x="65.67562" y="112.96402" type="curve"/>
			<point x="168.60681" y="192.77165" type="line"/>
			<point x="166.55901" y="226.65429"/>
			<point x="164" y="263.60665"/>
			<point x="164" y="298" type="curve" smooth="yes"/>
			<point x="164" y="587" type="line" smooth="yes"/>
			<point x="164" y="608"/>
			<point x="168" y="632"/>
			<point x="171" y="658" type="curve"/>
			<point x="226" y="688"/>
			<point x="325" y="693"/>
			<point x="457" y="665" type="curve"/>
			<point x="457" y="160" type="line"/>
			<point x="396.34011" y="175.79685"/>
			<point x="319.70964" y="182.80987"/>
			<point x="257.63505" y="180.78679" type="curve"/>
			<point x="116.2112" y="88.82935" type="line"/>
			<point x="232.46162" y="103.60831"/>
			<point x="350.48684" y="100.99853"/>
			<point x="467" y="81" type="curve"/>
			<point x="508" y="111" type="line"/>
			<point x="541" y="81" type="line"/>
			<point x="678" y="104"/>
			<point x="806" y="104"/>
			<point x="941" y="81" type="curve"/>
			<point x="936" y="117"/>
			<point x="941" y="466"/>
			<point x="941" y="530" type="curve" smooth="yes"/>
			<point x="941" y="587.68287"/>
			<point x="943.47421" y="633.98438"/>
		</contour>
	</outline>
</glyph>
<glyph name="pic.cafe" format="2">
	<advance width="760"/>
	<guideline x="193" y="0" angle="0"/>
	<guideline x="712" y="0" angle="0"/>
	<guideline x="58" y="470" angle="0"/>
	<guideline x="58" y="452" angle="0"/>
	<anchor x="-27" y="538" name="_top"/>
	<outline>
		<contour>
			<point x="50.83479" y="276.68982" type="curve"/>
			<point x="164.75072" y="203.64378"/>
			<point x="186.85919" y="197.14814"/>
			<point x="213.98126" y="198.01635" type="curve" smooth="yes"/>
			<point x="222.50724" y="198.28928"/>
			<point x="231.52866" y="199.2899"/>
			<point x="241" y="201" type="curve"/>
			<point x="260" y="130" type="line"/>
			<point x="253.59874" y="130"/>
			<point x="247.36551" y="130.11728"/>
			<point x="241.29748" y="130.34935" type="curve"/>
			<point x="229.99355" y="150.75774"/>
			<point x="220.95949" y="173.44686"/>
			<point x="213.98126" y="198.01635" type="curve" smooth="yes"/>
			<point x="201.3122" y="242.62252"/>
			<point x="195.4193" y="293.42653"/>
			<point x="195.02164" y="348.03262" type="curve" smooth="yes"/>
			<point x="195.00719" y="350.01677"/>
			<point x="194.98545" y="352.00598"/>
			<point x="195" y="354" type="curve" smooth="yes"/>
			<point x="195.42142" y="411.7348" type="line"/>
			<point x="198.25479" y="411.22631"/>
			<point x="201.11479" y="410.64836"/>
			<point x="204" y="410" type="curve"/>
			<point x="216" y="341" type="line"/>
			<point x="209.21337" y="343.81397"/>
			<point x="202.12534" y="346.24435"/>
			<point x="195.02164" y="348.03262" type="curve" smooth="yes"/>
			<point x="159.20989" y="357.04781"/>
			<point x="123" y="349.74412"/>
			<point x="123" y="293" type="curve" smooth="yes"/>
			<point x="123" y="292.13965"/>
			<point x="123.00574" y="291.28542"/>
			<point x="123.0172" y="290.43729" type="curve"/>
			<point x="56.72408" y="341.50073" type="line"/>
			<point x="74.7471" y="396.13142"/>
			<point x="127.41715" y="423.93919"/>
			<point x="195.42142" y="411.7348" type="curve"/>
			<point x="196" y="491" type="line"/>
			<point x="219.39458" y="488.19265"/>
			<point x="443.26653" y="486"/>
			<point x="452" y="486" type="curve" smooth="yes"/>
			<point x="456.94064" y="486"/>
			<point x="498.53933" y="486.40776"/>
			<point x="548.48678" y="487.08793" type="curve"/>
			<point x="554.0305" y="413" type="line"/>
			<point x="281" y="413" type="line"/>
			<point x="297" y="433" type="line"/>
			<point x="296.30287" y="427.07441"/>
			<point x="295.66649" y="420.29834"/>
			<point x="295.09086" y="413" type="curve" smooth="yes"/>
			<point x="292.36362" y="378.42175"/>
			<point x="291" y="332.1201"/>
			<point x="291" y="309" type="curve" smooth="yes"/>
			<point x="291" y="157"/>
			<point x="341" y="89"/>
			<point x="464" y="89" type="curve" smooth="yes"/>
			<point x="552" y="89"/>
			<point x="585" y="143"/>
			<point x="594" y="165" type="curve" smooth="yes"/>
			<point x="599" y="175"/>
			<point x="614" y="233"/>
			<point x="614" y="297" type="curve" smooth="yes"/>
			<point x="614" y="330.51964"/>
			<point x="614" y="383.70169"/>
			<point x="606.74031" y="487.86829" type="curve"/>
			<point x="657.00552" y="488.72719"/>
			<point x="699.7243" y="489.81776"/>
			<point x="708" y="491" type="curve"/>
			<point x="710" y="363" type="line" smooth="yes"/>
			<point x="713.99951" y="107.03124"/>
			<point x="599" y="17"/>
			<point x="447" y="17" type="curve" smooth="yes"/>
			<point x="345.82115" y="17"/>
			<point x="280.151" y="60.20226"/>
			<point x="241.29748" y="130.34935" type="curve"/>
			<point x="112.38467" y="135.27957"/>
			<point x="58.02584" y="192.01811"/>
		</contour>
		<contour>
			<point x="299" y="687" type="curve"/>
			<point x="303" y="650"/>
			<point x="312" y="616"/>
			<point x="315" y="595" type="curve"/>
			<point x="319" y="580"/>
			<point x="341" y="557"/>
			<point x="351" y="544" type="curve"/>
			<point x="411" y="561" type="line"/>
			<point x="405" y="576"/>
			<point x="396" y="610"/>
			<point x="394" y="620" type="curve" smooth="yes"/>
			<point x="391" y="636"/>
			<point x="430" y="697"/>
			<point x="442" y="722" type="curve"/>
			<point x="442" y="742"/>
			<point x="432" y="776"/>
			<point x="425" y="790" type="curve" smooth="yes"/>
			<point x="416" y="808"/>
			<point x="409" y="820"/>
			<point x="403" y="830" type="curve"/>
			<point x="335" y="814" type="line"/>
			<point x="342" y="801"/>
			<point x="344" y="786"/>
			<point x="346" y="778" type="curve" smooth="yes"/>
			<point x="349" y="761"/>
			<point x="312" y="726"/>
		</contour>
		<contour>
			<point x="464" y="636" type="curve"/>
			<point x="465" y="614"/>
			<point x="475" y="587"/>
			<point x="479" y="566" type="curve" smooth="yes"/>
			<point x="482" y="556"/>
			<point x="491" y="535"/>
			<point x="502" y="517" type="curve"/>
			<point x="569" y="545" type="line"/>
			<point x="563" y="559"/>
			<point x="559" y="572"/>
			<point x="558" y="579" type="curve" smooth="yes"/>
			<point x="555" y="595"/>
			<point x="595" y="642"/>
			<point x="606" y="672" type="curve"/>
			<point x="604" y="699"/>
			<point x="598" y="744"/>
			<point x="590" y="761" type="curve" smooth="yes"/>
			<point x="581" y="780"/>
			<point x="571" y="795"/>
			<point x="561" y="810" type="curve"/>
			<point x="494" y="794" type="line"/>
			<point x="500" y="778"/>
			<point x="511" y="735"/>
			<point x="511" y="727" type="curve" smooth="yes"/>
			<point x="511" y="710"/>
			<point x="475" y="676"/>
		</contour>
	</outline>
</glyph>
<glyph name="pic.discapacidad" format="2">
	<advance width="712"/>
	<guideline y="1000"/>
	<guideline y="416"/>
	<guideline y="634"/>
	<outline>
		<contour>
			<point x="193" y="740" type="curve" smooth="yes"/>
			<point x="193" y="685"/>
			<point x="237" y="646"/>
			<point x="293" y="646" type="curve" smooth="yes"/>
			<point x="347" y="646"/>
			<point x="393" y="685"/>
			<point x="393" y="740" type="curve" smooth="yes"/>
			<point x="393" y="795"/>
			<point x="347" y="830"/>
			<point x="293" y="830" type="curve" smooth="yes"/>
			<point x="237" y="830"/>
			<point x="193" y="795"/>
		</contour>
		<contour>
			<point x="277.99219" y="289" type="line"/>
			<point x="371.61606" y="377.16204" type="line"/>
			<point x="399.55911" y="379.59847"/>
			<point x="445.97925" y="381"/>
			<point x="469" y="381" type="curve" smooth="yes"/>
			<point x="494" y="381"/>
			<point x="538" y="380"/>
			<point x="546" y="378" type="curve"/>
			<point x="563.78846" y="314.6731" type="line"/>
			<point x="573.27496" y="295.70481"/>
			<point x="582.50742" y="278.98786"/>
			<point x="588" y="270" type="curve" smooth="yes"/>
			<point x="602" y="249"/>
			<point x="623" y="212"/>
			<point x="662" y="163" type="curve"/>
			<point x="574" y="118" type="line"/>
			<point x="472.49315" y="289" type="line"/>
			<point x="342" y="289" type="line"/>
		</contour>
		<contour>
			<point x="194" y="445" type="curve"/>
			<point x="198" y="430"/>
			<point x="201" y="390"/>
			<point x="201" y="380" type="curve"/>
			<point x="185" y="362"/>
			<point x="155" y="322"/>
			<point x="155" y="259" type="curve" smooth="yes"/>
			<point x="155" y="160"/>
			<point x="204" y="75"/>
			<point x="333" y="75" type="curve" smooth="yes"/>
			<point x="416" y="75"/>
			<point x="467" y="122"/>
			<point x="488" y="140" type="curve"/>
			<point x="541" y="86" type="line"/>
			<point x="529" y="69"/>
			<point x="464" y="-20"/>
			<point x="324" y="-20" type="curve" smooth="yes"/>
			<point x="135" y="-20"/>
			<point x="50" y="122"/>
			<point x="50" y="253" type="curve" smooth="yes"/>
			<point x="50" y="351"/>
			<point x="85" y="436"/>
			<point x="161" y="459" type="curve"/>
			<point x="165" y="458"/>
			<point x="187" y="450"/>
		</contour>
		<contour>
			<point x="341.47436" y="453" type="line"/>
			<point x="239.88875" y="315.77993" type="line"/>
			<point x="242.72395" y="344.88572"/>
			<point x="245" y="376.68507"/>
			<point x="245" y="388" type="curve" smooth="yes"/>
			<point x="245" y="489" type="line" smooth="yes"/>
			<point x="245" y="536"/>
			<point x="236" y="577"/>
			<point x="232" y="593" type="curve"/>
			<point x="241" y="596"/>
			<point x="295" y="610"/>
			<point x="306" y="610" type="curve" smooth="yes"/>
			<point x="312" y="610"/>
			<point x="338" y="604"/>
			<point x="341" y="601" type="curve"/>
			<point x="341.26094" y="519.58618" type="line"/>
			<point x="384.59596" y="527.86206"/>
			<point x="433.28078" y="532"/>
			<point x="441" y="532" type="curve" smooth="yes"/>
			<point x="445" y="532"/>
			<point x="462" y="531"/>
			<point x="467" y="530" type="curve"/>
			<point x="468" y="453" type="line"/>
		</contour>
	</outline>
</glyph>
<glyph name="pic.hombre" format="2">
	<advance width="676"/>
	<guideline x="586" y="0" angle="0"/>
	<guideline x="69" y="0" angle="0"/>
	<guideline x="17" y="949" angle="0"/>
	<guideline x="318" y="0" angle="0"/>
	<guideline x="558" y="0" angle="0"/>
	<guideline x="17" y="1000" angle="0"/>
	<guideline x="17" y="467" angle="0"/>
	<outline>
		<contour>
			<point x="356" y="620" type="curve" smooth="yes"/>
			<point x="418" y="620"/>
			<point x="468" y="664"/>
			<point x="468" y="727" type="curve" smooth="yes"/>
			<point x="468" y="788"/>
			<point x="418" y="830"/>
			<point x="356" y="830" type="curve" smooth="yes"/>
			<point x="293" y="830"/>
			<point x="242" y="788"/>
			<point x="242" y="727" type="curve" smooth="yes"/>
			<point x="242" y="664"/>
			<point x="293" y="620"/>
		</contour>
		<contour>
			<point x="626" y="494.77303" type="line"/>
			<point x="497.60156" y="419.84645" type="line"/>
			<point x="485.83972" y="381.63232"/>
			<point x="469.46483" y="341.92965"/>
			<point x="449" y="301" type="curve" smooth="yes"/>
			<point x="426.13925" y="253.80361"/>
			<point x="377.71881" y="165.82048"/>
			<point x="346.24881" y="114.85217" type="curve"/>
			<point x="173.56202" y="463.62843" type="line"/>
			<point x="276.86276" y="469.69934"/>
			<point x="404.61951" y="470.11617"/>
			<point x="481.65743" y="464.55901" type="curve"/>
			<point x="583" y="546" type="line"/>
			<point x="419" y="557"/>
			<point x="260" y="557"/>
			<point x="96" y="546" type="curve"/>
			<point x="89" y="542"/>
			<point x="59" y="521"/>
			<point x="50" y="512" type="curve"/>
			<point x="50" y="466" type="line"/>
			<point x="59" y="460"/>
			<point x="82.56319" y="415.77784"/>
			<point x="99" y="384" type="curve" smooth="yes"/>
			<point x="219" y="152" type="line" smooth="yes"/>
			<point x="249.4088" y="93.20965"/>
			<point x="265" y="60"/>
			<point x="278" y="46" type="curve" smooth="yes"/>
			<point x="303" y="23"/>
			<point x="376" y="13"/>
			<point x="396" y="23" type="curve"/>
			<point x="626" y="466" type="line"/>
		</contour>
	</outline>
</glyph>
<glyph name="pic.info" format="2">
	<advance width="884"/>
	<guideline x="38" y="638" angle="0"/>
	<guideline x="38" y="467" angle="0"/>
	<anchor x="176" y="0" name="bottom"/>
	<anchor x="122" y="600" name="top"/>
	<anchor x="287" y="10" name="ogonek"/>
	<outline>
		<contour>
			<point x="398" y="29" type="line"/>
			<point x="400" y="43"/>
			<point x="407" y="98"/>
			<point x="407" y="115" type="curve"/>
			<point x="407" y="315" type="line"/>
			<point x="405" y="345"/>
			<point x="396" y="402"/>
			<point x="388" y="425" type="curve"/>
			<point x="392" y="431"/>
			<point x="464" y="456"/>
			<point x="472" y="456" type="curve" smooth="yes"/>
			<point x="481" y="456"/>
			<point x="510" y="449"/>
			<point x="512" y="445" type="curve"/>
			<point x="512" y="29" type="line"/>
		</contour>
		<contour>
			<point x="450" y="507" type="curve" smooth="yes"/>
			<point x="499" y="507"/>
			<point x="530" y="538"/>
			<point x="530" y="583" type="curve" smooth="yes"/>
			<point x="530" y="629"/>
			<point x="499" y="659"/>
			<point x="450" y="659" type="curve" smooth="yes"/>
			<point x="402" y="659"/>
			<point x="370" y="629"/>
			<point x="370" y="583" type="curve" smooth="yes"/>
			<point x="370" y="538"/>
			<point x="402" y="507"/>
		</contour>
		<contour>
			<point x="652.15777" y="655.62764" type="curve"/>
			<point x="715.40295" y="722.01369" type="line"/>
			<point x="789.41266" y="657.22027"/>
			<point x="834" y="556.1213"/>
			<point x="834" y="417" type="curve" smooth="yes"/>
			<point x="834" y="132"/>
			<point x="625" y="29"/>
			<point x="497" y="29" type="curve"/>
			<point x="498" y="112" type="line"/>
			<point x="581" y="112"/>
			<point x="647" y="166"/>
			<point x="663" y="188" type="curve" smooth="yes"/>
			<point x="685" y="212"/>
			<point x="733" y="312"/>
			<point x="733" y="408" type="curve" smooth="yes"/>
			<point x="733" y="523.49931"/>
			<point x="706.05259" y="604.75295"/>
		</contour>
		<contour>
			<point x="664.20985" y="758.51649" type="curve"/>
			<point x="611.63968" y="685.42461" type="line"/>
			<point x="567.9106" y="710.18251"/>
			<point x="512.36404" y="722"/>
			<point x="445" y="722" type="curve" smooth="yes"/>
			<point x="324" y="722"/>
			<point x="250" y="668"/>
			<point x="229" y="651" type="curve"/>
			<point x="187" y="611"/>
			<point x="151" y="520"/>
			<point x="151" y="408" type="curve" smooth="yes"/>
			<point x="151" y="203"/>
			<point x="234" y="143"/>
			<point x="340" y="120" type="curve"/>
			<point x="343" y="104"/>
			<point x="344" y="87"/>
			<point x="344" y="72" type="curve"/>
			<point x="330" y="57"/>
			<point x="317" y="49"/>
			<point x="301" y="41" type="curve"/>
			<point x="148" y="85"/>
			<point x="50" y="199"/>
			<point x="50" y="403" type="curve" smooth="yes"/>
			<point x="50" y="684"/>
			<point x="248" y="810"/>
			<point x="451" y="810" type="curve" smooth="yes"/>
			<point x="531.40976" y="810"/>
			<point x="604.20493" y="793.03414"/>
		</contour>
	</outline>
</glyph>
<glyph name="pic.uni" format="2">
	<advance width="676"/>
	<guideline x="586" y="0" angle="0"/>
	<guideline x="69" y="0" angle="0"/>
	<guideline x="17" y="949" angle="0"/>
	<guideline x="318" y="0" angle="0"/>
	<guideline x="558" y="0" angle="0"/>
	<guideline x="17" y="1000" angle="0"/>
	<guideline x="17" y="467" angle="0"/>
	<outline>
		<contour>
			<point x="356.23547" y="620" type="curve" smooth="yes"/>
			<point x="418.23547" y="620"/>
			<point x="468.23547" y="664"/>
			<point x="468.23547" y="727" type="curve" smooth="yes"/>
			<point x="468.23547" y="788"/>
			<point x="418.23547" y="830"/>
			<point x="356.23547" y="830" type="curve" smooth="yes"/>
			<point x="293.23547" y="830"/>
			<point x="242.23547" y="788"/>
			<point x="242.23547" y="727" type="curve" smooth="yes"/>
			<point x="242.23547" y="664"/>
			<point x="293.23547" y="620"/>
		</contour>
		<contour>
			<point x="429.9364" y="314.16965" type="curve"/>
			<point x="527.98198" y="320.27006" type="line"/>
			<point x="627.23547" y="469" type="line"/>
			<point x="627.23547" y="500" type="line"/>
			<point x="619.23547" y="510"/>
			<point x="600.23547" y="535"/>
			<point x="584.23547" y="546" type="curve"/>
			<point x="419.23547" y="557"/>
			<point x="261.23547" y="557"/>
			<point x="96.23548" y="546" type="curve"/>
			<point x="90.23548" y="541"/>
			<point x="59.23548" y="521"/>
			<point x="50.23548" y="512" type="curve"/>
			<point x="50.23548" y="469" type="line"/>
			<point x="55.27995" y="465.07652"/>
			<point x="99.00095" y="401.73612"/>
			<point x="159.24428" y="303.95526" type="curve"/>
			<point x="262.03796" y="310.35109" type="line"/>
			<point x="175.95407" y="462.94565" type="line"/>
			<point x="289.55344" y="470.19052"/>
			<point x="431.97614" y="470.09378"/>
			<point x="505.186" y="462.65536" type="curve"/>
			<point x="492.86668" y="422.80498"/>
			<point x="464.59543" y="371.07771"/>
		</contour>
		<contour>
			<point x="523.82939" y="256.3366" type="curve"/>
			<point x="421.35351" y="257.66658" type="line"/>
			<point x="511.84143" y="100.07508" type="line"/>
			<point x="398.31982" y="92.81767"/>
			<point x="255.89307" y="92.89895"/>
			<point x="182.53844" y="100.31893" type="curve"/>
			<point x="268.32719" y="259.6526" type="line"/>
			<point x="171.1651" y="260.91361" type="line"/>
			<point x="60.23548" y="94" type="line"/>
			<point x="60.23548" y="63" type="line"/>
			<point x="68.23548" y="53"/>
			<point x="87.23548" y="28"/>
			<point x="103.23548" y="17" type="curve"/>
			<point x="268.23547" y="6"/>
			<point x="426.23547" y="6"/>
			<point x="591.23547" y="17" type="curve"/>
			<point x="597.23547" y="22"/>
			<point x="628.23547" y="42"/>
			<point x="637.23547" y="51" type="curve"/>
			<point x="637.23547" y="94" type="line"/>
			<point x="632.52558" y="97.66328"/>
			<point x="583.44881" y="164.59828"/>
		</contour>
	</outline>
</glyph>
